<svg width="18" height="18" viewBox="0 0 18 18" fill="none" xmlns="http://www.w3.org/2000/svg">
<g clip-path="url(#clip0_3032_519)">
<path d="M16.125 9.87233V8.12783C17.2057 7.80233 18 6.81008 18 5.62508C18 4.17758 16.8225 3.00008 15.375 3.00008C14.6377 3.00008 13.9725 3.30833 13.4948 3.79958L11.6145 2.62433C11.6145 1.17683 10.437 -0.000671387 8.9895 -0.000671387C7.542 -0.000671387 6.3645 1.17683 6.3645 2.62433C6.3645 2.62808 6.366 2.63183 6.366 2.63633L4.50525 3.79958C4.02825 3.30758 3.363 2.99933 2.625 2.99933C1.1775 2.99933 0 4.17683 0 5.62433C0 6.80933 0.79425 7.80158 1.875 8.12708V9.87158C0.79425 10.1971 0 11.1893 0 12.3743C0 13.8218 1.1775 14.9993 2.625 14.9993C3.363 14.9993 4.0275 14.6911 4.50525 14.1991L6.366 15.3623C6.366 15.3661 6.3645 15.3698 6.3645 15.3743C6.3645 16.8218 7.542 17.9993 8.9895 17.9993C10.437 17.9993 11.6145 16.8218 11.6145 15.3743L13.4948 14.1991C13.9718 14.6911 14.637 14.9993 15.375 14.9993C16.8225 14.9993 18 13.8218 18 12.3743C18 11.1893 17.2057 10.1971 16.125 9.87158V9.87233ZM15.375 4.50008C15.9952 4.50008 16.5 5.00483 16.5 5.62508C16.5 6.24533 15.9952 6.75008 15.375 6.75008C14.7548 6.75008 14.25 6.24533 14.25 5.62508C14.25 5.00483 14.7548 4.50008 15.375 4.50008ZM8.9895 1.50008C9.60975 1.50008 10.1145 2.00483 10.1145 2.62508C10.1145 3.24533 9.60975 3.75008 8.9895 3.75008C8.36925 3.75008 7.8645 3.24533 7.8645 2.62508C7.8645 2.00483 8.36925 1.50008 8.9895 1.50008ZM1.5 5.62508C1.5 5.00483 2.00475 4.50008 2.625 4.50008C3.24525 4.50008 3.75 5.00483 3.75 5.62508C3.75 6.24533 3.24525 6.75008 2.625 6.75008C2.00475 6.75008 1.5 6.24533 1.5 5.62508ZM2.625 13.5001C2.00475 13.5001 1.5 12.9953 1.5 12.3751C1.5 11.7548 2.00475 11.2501 2.625 11.2501C3.24525 11.2501 3.75 11.7548 3.75 12.3751C3.75 12.9953 3.24525 13.5001 2.625 13.5001ZM8.9895 16.5001C8.36925 16.5001 7.8645 15.9953 7.8645 15.3751C7.8645 14.7548 8.36925 14.2501 8.9895 14.2501C9.60975 14.2501 10.1145 14.7548 10.1145 15.3751C10.1145 15.9953 9.60975 16.5001 8.9895 16.5001ZM11.154 13.8946C10.6807 13.2046 9.88725 12.7501 8.9895 12.7501C8.09175 12.7501 7.3065 13.2008 6.8325 13.8856L5.2005 12.8656C5.2305 12.7058 5.25 12.5431 5.25 12.3751C5.25 11.1901 4.45575 10.1978 3.375 9.87233V8.12783C4.45575 7.80233 5.25 6.81008 5.25 5.62508C5.25 5.45708 5.2305 5.29358 5.2005 5.13458L6.8325 4.11458C7.3065 4.79933 8.0955 5.25008 8.9895 5.25008C9.8835 5.25008 10.68 4.79558 11.154 4.10558L12.7995 5.13383C12.7695 5.29358 12.75 5.45633 12.75 5.62508C12.75 6.81008 13.5443 7.80233 14.625 8.12783V9.87233C13.5443 10.1978 12.75 11.1901 12.75 12.3751C12.75 12.5431 12.7695 12.7066 12.7995 12.8656L11.154 13.8946ZM15.375 13.5001C14.7548 13.5001 14.25 12.9953 14.25 12.3751C14.25 11.7548 14.7548 11.2501 15.375 11.2501C15.9952 11.2501 16.5 11.7548 16.5 12.3751C16.5 12.9953 15.9952 13.5001 15.375 13.5001ZM9.75 9.83108L12 8.54483V10.8683L9.75 12.2746V9.83108ZM11.5072 7.19183L9 8.62433L6.49275 7.19183L9 5.62433L11.5072 7.19183ZM6 8.54483L8.25 9.83108V12.2746L6 10.8683V8.54483Z" fill="#0C0C0C"/>
</g>
<defs>
<clipPath id="clip0_3032_519">
<rect width="18" height="18" fill="white"/>
</clipPath>
</defs>
</svg>
