<svg width="16" height="16" viewBox="0 0 16 16" fill="none" xmlns="http://www.w3.org/2000/svg">
<path d="M0.5 8.00031C0.5 5.17206 0.5 3.75756 1.379 2.87931C2.258 2.00106 3.67175 2.00031 6.5 2.00031H9.5C12.3283 2.00031 13.7428 2.00031 14.621 2.87931C15.4993 3.75831 15.5 5.17206 15.5 8.00031V9.50031C15.5 12.3286 15.5 13.7431 14.621 14.6213C13.742 15.4996 12.3283 15.5003 9.5 15.5003H6.5C3.67175 15.5003 2.25725 15.5003 1.379 14.6213C0.50075 13.7423 0.5 12.3286 0.5 9.50031V8.00031Z" stroke="#0C0C0C" stroke-width="0.9"/>
<path d="M4.25 2.00031V0.875305M11.75 2.00031V0.875305M0.875 5.75031H15.125" stroke="#0C0C0C" stroke-width="0.9" stroke-linecap="round"/>
<path d="M12.5 11.7502C12.5 11.9491 12.421 12.1398 12.2803 12.2805C12.1397 12.4211 11.9489 12.5002 11.75 12.5002C11.5511 12.5002 11.3603 12.4211 11.2197 12.2805C11.079 12.1398 11 11.9491 11 11.7502C11 11.5512 11.079 11.3605 11.2197 11.2198C11.3603 11.0792 11.5511 11.0002 11.75 11.0002C11.9489 11.0002 12.1397 11.0792 12.2803 11.2198C12.421 11.3605 12.5 11.5512 12.5 11.7502ZM12.5 8.75015C12.5 8.94906 12.421 9.13983 12.2803 9.28048C12.1397 9.42113 11.9489 9.50015 11.75 9.50015C11.5511 9.50015 11.3603 9.42113 11.2197 9.28048C11.079 9.13983 11 8.94906 11 8.75015C11 8.55124 11.079 8.36047 11.2197 8.21982C11.3603 8.07917 11.5511 8.00015 11.75 8.00015C11.9489 8.00015 12.1397 8.07917 12.2803 8.21982C12.421 8.36047 12.5 8.55124 12.5 8.75015ZM8.75 11.7502C8.75 11.9491 8.67098 12.1398 8.53033 12.2805C8.38968 12.4211 8.19891 12.5002 8 12.5002C7.80109 12.5002 7.61032 12.4211 7.46967 12.2805C7.32902 12.1398 7.25 11.9491 7.25 11.7502C7.25 11.5512 7.32902 11.3605 7.46967 11.2198C7.61032 11.0792 7.80109 11.0002 8 11.0002C8.19891 11.0002 8.38968 11.0792 8.53033 11.2198C8.67098 11.3605 8.75 11.5512 8.75 11.7502ZM8.75 8.75015C8.75 8.94906 8.67098 9.13983 8.53033 9.28048C8.38968 9.42113 8.19891 9.50015 8 9.50015C7.80109 9.50015 7.61032 9.42113 7.46967 9.28048C7.32902 9.13983 7.25 8.94906 7.25 8.75015C7.25 8.55124 7.32902 8.36047 7.46967 8.21982C7.61032 8.07917 7.80109 8.00015 8 8.00015C8.19891 8.00015 8.38968 8.07917 8.53033 8.21982C8.67098 8.36047 8.75 8.55124 8.75 8.75015ZM5 11.7502C5 11.9491 4.92098 12.1398 4.78033 12.2805C4.63968 12.4211 4.44891 12.5002 4.25 12.5002C4.05109 12.5002 3.86032 12.4211 3.71967 12.2805C3.57902 12.1398 3.5 11.9491 3.5 11.7502C3.5 11.5512 3.57902 11.3605 3.71967 11.2198C3.86032 11.0792 4.05109 11.0002 4.25 11.0002C4.44891 11.0002 4.63968 11.0792 4.78033 11.2198C4.92098 11.3605 5 11.5512 5 11.7502ZM5 8.75015C5 8.94906 4.92098 9.13983 4.78033 9.28048C4.63968 9.42113 4.44891 9.50015 4.25 9.50015C4.05109 9.50015 3.86032 9.42113 3.71967 9.28048C3.57902 9.13983 3.5 8.94906 3.5 8.75015C3.5 8.55124 3.57902 8.36047 3.71967 8.21982C3.86032 8.07917 4.05109 8.00015 4.25 8.00015C4.44891 8.00015 4.63968 8.07917 4.78033 8.21982C4.92098 8.36047 5 8.55124 5 8.75015Z" fill="#0C0C0C"/>
</svg>
