<svg width="16" height="17" viewBox="0 0 16 17" fill="none" xmlns="http://www.w3.org/2000/svg">
<g clip-path="url(#clip0_3032_479)">
<path d="M15.3333 15.1667H3.33333C2.8029 15.1667 2.29419 14.956 1.91912 14.5809C1.54405 14.2058 1.33333 13.6971 1.33333 13.1667V1.16667C1.33333 0.989856 1.2631 0.820286 1.13807 0.695262C1.01305 0.570238 0.843478 0.5 0.666667 0.5C0.489856 0.5 0.320286 0.570238 0.195262 0.695262C0.0702379 0.820286 0 0.989856 0 1.16667L0 13.1667C0.00105857 14.0504 0.352588 14.8976 0.97748 15.5225C1.60237 16.1474 2.4496 16.4989 3.33333 16.5H15.3333C15.5101 16.5 15.6797 16.4298 15.8047 16.3047C15.9298 16.1797 16 16.0101 16 15.8333C16 15.6565 15.9298 15.487 15.8047 15.3619C15.6797 15.2369 15.5101 15.1667 15.3333 15.1667Z" fill="#0C0C0C"/>
<path d="M3.99967 13.8333C4.17649 13.8333 4.34605 13.7631 4.47108 13.6381C4.5961 13.5131 4.66634 13.3435 4.66634 13.1667V8.50001C4.66634 8.3232 4.5961 8.15363 4.47108 8.02861C4.34605 7.90358 4.17649 7.83334 3.99967 7.83334C3.82286 7.83334 3.65329 7.90358 3.52827 8.02861C3.40325 8.15363 3.33301 8.3232 3.33301 8.50001V13.1667C3.33301 13.3435 3.40325 13.5131 3.52827 13.6381C3.65329 13.7631 3.82286 13.8333 3.99967 13.8333Z" fill="#0C0C0C"/>
<path d="M6.66699 7.16667V13.1667C6.66699 13.3435 6.73723 13.513 6.86225 13.6381C6.98728 13.7631 7.15685 13.8333 7.33366 13.8333C7.51047 13.8333 7.68004 13.7631 7.80506 13.6381C7.93009 13.513 8.00033 13.3435 8.00033 13.1667V7.16667C8.00033 6.98986 7.93009 6.82029 7.80506 6.69526C7.68004 6.57024 7.51047 6.5 7.33366 6.5C7.15685 6.5 6.98728 6.57024 6.86225 6.69526C6.73723 6.82029 6.66699 6.98986 6.66699 7.16667Z" fill="#0C0C0C"/>
<path d="M10 9.16667V13.1667C10 13.3435 10.0702 13.513 10.1953 13.6381C10.3203 13.7631 10.4899 13.8333 10.6667 13.8333C10.8435 13.8333 11.013 13.7631 11.1381 13.6381C11.2631 13.513 11.3333 13.3435 11.3333 13.1667V9.16667C11.3333 8.98986 11.2631 8.82029 11.1381 8.69526C11.013 8.57024 10.8435 8.5 10.6667 8.5C10.4899 8.5 10.3203 8.57024 10.1953 8.69526C10.0702 8.82029 10 8.98986 10 9.16667Z" fill="#0C0C0C"/>
<path d="M13.333 6.50001V13.1667C13.333 13.3435 13.4032 13.5131 13.5283 13.6381C13.6533 13.7631 13.8229 13.8333 13.9997 13.8333C14.1765 13.8333 14.3461 13.7631 14.4711 13.6381C14.5961 13.5131 14.6663 13.3435 14.6663 13.1667V6.50001C14.6663 6.3232 14.5961 6.15363 14.4711 6.02861C14.3461 5.90358 14.1765 5.83334 13.9997 5.83334C13.8229 5.83334 13.6533 5.90358 13.5283 6.02861C13.4032 6.15363 13.333 6.3232 13.333 6.50001Z" fill="#0C0C0C"/>
<path d="M3.99953 6.49999C4.17633 6.49995 4.34587 6.42969 4.47087 6.30465L6.86153 3.91399C6.9886 3.79294 7.15737 3.72542 7.33287 3.72542C7.50836 3.72542 7.67713 3.79294 7.8042 3.91399L9.2522 5.36199C9.62725 5.73693 10.1359 5.94756 10.6662 5.94756C11.1965 5.94756 11.7051 5.73693 12.0802 5.36199L15.8042 1.63799C15.9256 1.51225 15.9928 1.34385 15.9913 1.16905C15.9898 0.994255 15.9197 0.827046 15.7961 0.703441C15.6725 0.579835 15.5053 0.509723 15.3305 0.508204C15.1557 0.506685 14.9873 0.573881 14.8615 0.69532L11.1375 4.41865C11.0125 4.54363 10.843 4.61384 10.6662 4.61384C10.4894 4.61384 10.3199 4.54363 10.1949 4.41865L8.74687 2.97132C8.37181 2.59638 7.86319 2.38575 7.33287 2.38575C6.80254 2.38575 6.29392 2.59638 5.91887 2.97132L3.5282 5.36199C3.43499 5.45522 3.37152 5.574 3.34581 5.7033C3.3201 5.8326 3.3333 5.96662 3.38375 6.08842C3.43419 6.21022 3.51962 6.31433 3.62923 6.38759C3.73883 6.46084 3.8677 6.49996 3.99953 6.49999Z" fill="#0C0C0C"/>
</g>
<defs>
<clipPath id="clip0_3032_479">
<rect width="16" height="16" fill="white" transform="translate(0 0.5)"/>
</clipPath>
</defs>
</svg>
