<svg width="16" height="17" viewBox="0 0 16 17" fill="none" xmlns="http://www.w3.org/2000/svg">
<g clip-path="url(#clip0_3032_496)">
<path d="M11 0.5C8.196 0.5 6 1.818 6 3.5V5.22467C5.678 5.18667 5.34333 5.16667 5 5.16667C2.196 5.16667 0 6.48467 0 8.16667V13.5C0 15.182 2.196 16.5 5 16.5C7.27133 16.5 9.144 15.6353 9.77333 14.4127C10.172 14.4707 10.5827 14.5 11 14.5C13.804 14.5 16 13.182 16 11.5V3.5C16 1.818 13.804 0.5 11 0.5ZM14.6667 8.83333C14.6667 9.62 13.0987 10.5 11 10.5C10.6587 10.5 10.324 10.4767 10 10.4313V9.10867C10.3267 9.14667 10.6613 9.16667 11 9.16667C12.4627 9.16667 13.76 8.808 14.6667 8.226V8.83333ZM1.33333 10.226C2.24 10.808 3.53733 11.1667 5 11.1667C6.46267 11.1667 7.76 10.808 8.66667 10.226V10.8333C8.66667 11.62 7.09867 12.5 5 12.5C2.90133 12.5 1.33333 11.62 1.33333 10.8333V10.226ZM14.6667 6.16667C14.6667 6.95333 13.0987 7.83333 11 7.83333C10.6433 7.83333 10.2933 7.808 9.956 7.75867C9.82733 7.16733 9.42267 6.636 8.81867 6.21C9.47467 6.39667 10.2133 6.5 11 6.5C12.4627 6.5 13.76 6.14133 14.6667 5.55933V6.16667ZM11 1.83333C13.0987 1.83333 14.6667 2.71333 14.6667 3.5C14.6667 4.28667 13.0987 5.16667 11 5.16667C8.90133 5.16667 7.33333 4.28667 7.33333 3.5C7.33333 2.71333 8.90133 1.83333 11 1.83333ZM5 6.5C7.09867 6.5 8.66667 7.38 8.66667 8.16667C8.66667 8.95333 7.09867 9.83333 5 9.83333C2.90133 9.83333 1.33333 8.95333 1.33333 8.16667C1.33333 7.38 2.90133 6.5 5 6.5ZM5 15.1667C2.90133 15.1667 1.33333 14.2867 1.33333 13.5V12.8927C2.24 13.4747 3.53733 13.8333 5 13.8333C6.46267 13.8333 7.76 13.4747 8.66667 12.8927V13.5C8.66667 14.2867 7.09867 15.1667 5 15.1667ZM11 13.1667C10.6587 13.1667 10.324 13.1433 10 13.098V11.7753C10.3267 11.8133 10.6613 11.8333 11 11.8333C12.4627 11.8333 13.76 11.4747 14.6667 10.8927V11.5C14.6667 12.2867 13.0987 13.1667 11 13.1667Z" fill="#0C0C0C"/>
</g>
<defs>
<clipPath id="clip0_3032_496">
<rect width="16" height="16" fill="white" transform="translate(0 0.5)"/>
</clipPath>
</defs>
</svg>
