<svg width="16" height="16" viewBox="0 0 16 16" fill="none" xmlns="http://www.w3.org/2000/svg">
<path d="M16 2.5C16 1.96957 15.7893 1.46086 15.4142 1.08579C15.0391 0.710714 14.5304 0.5 14 0.5L2 0.5C1.46957 0.5 0.960859 0.710714 0.585786 1.08579C0.210714 1.46086 0 1.96957 0 2.5L0 4.5C0.00173577 4.9936 0.187099 5.46889 0.52 5.83333C0.187099 6.19778 0.00173577 6.67307 0 7.16667L0 9.16667C0.00173577 9.66027 0.187099 10.1356 0.52 10.5C0.187099 10.8644 0.00173577 11.3397 0 11.8333L0 15.8333H16V11.8333C15.9983 11.3397 15.8129 10.8644 15.48 10.5C15.8129 10.1356 15.9983 9.66027 16 9.16667V7.16667C15.9983 6.67307 15.8129 6.19778 15.48 5.83333C15.8129 5.46889 15.9983 4.9936 16 4.5V2.5ZM1.33333 2.5C1.33333 2.32319 1.40357 2.15362 1.5286 2.0286C1.65362 1.90357 1.82319 1.83333 2 1.83333H3.33333V3.16667H4.66667V1.83333H6V3.16667H7.33333V1.83333H14C14.1768 1.83333 14.3464 1.90357 14.4714 2.0286C14.5964 2.15362 14.6667 2.32319 14.6667 2.5V4.5C14.6667 4.67681 14.5964 4.84638 14.4714 4.9714C14.3464 5.09643 14.1768 5.16667 14 5.16667H2C1.82319 5.16667 1.65362 5.09643 1.5286 4.9714C1.40357 4.84638 1.33333 4.67681 1.33333 4.5V2.5ZM14.6667 7.16667V9.16667C14.6667 9.34348 14.5964 9.51305 14.4714 9.63807C14.3464 9.7631 14.1768 9.83333 14 9.83333H2C1.82319 9.83333 1.65362 9.7631 1.5286 9.63807C1.40357 9.51305 1.33333 9.34348 1.33333 9.16667V7.16667C1.33333 6.98986 1.40357 6.82029 1.5286 6.69526C1.65362 6.57024 1.82319 6.5 2 6.5H3.33333V7.83333H4.66667V6.5H6V7.83333H7.33333V6.5H14C14.1768 6.5 14.3464 6.57024 14.4714 6.69526C14.5964 6.82029 14.6667 6.98986 14.6667 7.16667ZM14.6667 14.5H1.33333V11.8333C1.33333 11.6565 1.40357 11.487 1.5286 11.3619C1.65362 11.2369 1.82319 11.1667 2 11.1667H3.33333V12.5H4.66667V11.1667H6V12.5H7.33333V11.1667H14C14.1768 11.1667 14.3464 11.2369 14.4714 11.3619C14.5964 11.487 14.6667 11.6565 14.6667 11.8333V14.5Z" fill="#0C0C0C"/>
</svg>
