<svg width="16" height="17" viewBox="0 0 16 17" fill="none" xmlns="http://www.w3.org/2000/svg">
<g clip-path="url(#clip0_3032_515)">
<path d="M5.99967 11.1667H12.6663V12.5H5.99967V11.1667ZM15.9997 5.55733V16.5H2.66634V13.3787L3.99967 14.712V15.1667H14.6663V6.5H9.99967V1.83333H4.66634C4.29901 1.83333 3.99967 2.132 3.99967 2.5V3.95933C3.68034 3.87733 3.34501 3.83333 2.99967 3.83333C2.88767 3.83333 2.77634 3.838 2.66634 3.84733V2.5C2.66634 1.39733 3.56367 0.5 4.66634 0.5H10.9423L15.9997 5.55733ZM11.333 5.16667H13.7237L11.333 2.776V5.16667ZM12.6663 8.5H6.94434C6.86434 8.97867 6.69901 9.42867 6.46501 9.83333H12.667L12.6663 8.5ZM1.33301 13.4933V9.91333C0.723675 9.424 0.333008 8.674 0.333008 7.83333C0.333008 6.36267 1.52901 5.16667 2.99967 5.16667C4.47034 5.16667 5.66634 6.36267 5.66634 7.83333C5.66634 8.674 5.27567 9.424 4.66634 9.91333V13.4933L2.99967 11.8267L1.33301 13.4933ZM1.66634 7.83333C1.66634 8.56867 2.26434 9.16667 2.99967 9.16667C3.73501 9.16667 4.33301 8.56867 4.33301 7.83333C4.33301 7.098 3.73501 6.5 2.99967 6.5C2.26434 6.5 1.66634 7.098 1.66634 7.83333Z" fill="#0C0C0C"/>
</g>
<defs>
<clipPath id="clip0_3032_515">
<rect width="16" height="16" fill="white" transform="translate(0 0.5)"/>
</clipPath>
</defs>
</svg>
