<svg width="18" height="18" viewBox="0 0 18 18" fill="none" xmlns="http://www.w3.org/2000/svg">
<g clip-path="url(#clip0_3032_492)">
<path d="M8.89816 3.00076C5.76016 3.05251 3.11641 5.64526 3.00466 8.77951C2.93866 10.6005 3.69016 12.3293 5.06716 13.524C5.66041 14.0393 6.00016 14.8313 6.00016 15.75C6.00016 16.9905 7.00966 18 8.25016 18H9.75016C10.9907 18 12.0002 16.9905 12.0002 15.75V15.4688C12.0002 14.7443 12.3414 14.0453 12.9617 13.4993C14.2577 12.3608 15.0002 10.7213 15.0002 9.00001C15.0002 7.37926 14.3634 5.85976 13.2077 4.72276C12.0519 3.58576 10.5204 2.96401 8.89816 3.00076ZM10.5002 15.75C10.5002 16.164 10.1642 16.5 9.75016 16.5H8.25016C7.83616 16.5 7.50016 16.164 7.50016 15.6983C7.50016 15.4613 7.47691 15.2288 7.44241 15H10.5309C10.5122 15.1545 10.5002 15.3113 10.5002 15.4688V15.75ZM11.9717 12.3728C11.5884 12.7095 11.2794 13.0905 11.0417 13.5H9.75016V10.362C10.6209 10.0515 11.2502 9.22651 11.2502 8.25001C11.2502 7.83526 10.9149 7.50001 10.5002 7.50001C10.0854 7.50001 9.75016 7.83526 9.75016 8.25001C9.75016 8.66476 9.41416 9.00001 9.00016 9.00001C8.58616 9.00001 8.25016 8.66401 8.25016 8.25001C8.25016 7.83601 7.91491 7.50001 7.50016 7.50001C7.08541 7.50001 6.75016 7.83526 6.75016 8.25001C6.75016 9.22651 7.37941 10.0515 8.25016 10.362V13.5H6.94066C6.70816 13.0815 6.41041 12.705 6.04966 12.3915C5.01766 11.4953 4.45366 10.1985 4.50316 8.83351C4.58716 6.48301 6.57016 4.53901 8.92366 4.50076C8.94916 4.50076 8.97391 4.50076 9.00016 4.50076C10.1897 4.50076 11.3079 4.95751 12.1562 5.79301C13.0232 6.64576 13.5009 7.78501 13.5009 9.00076C13.5009 10.2908 12.9437 11.5193 11.9724 12.3735L11.9717 12.3728ZM12.5889 1.85551L13.5152 0.348006C13.7312 -0.00599404 14.1932 -0.116244 14.5464 0.102006C14.8997 0.318756 15.0099 0.780006 14.7924 1.13326L13.8662 2.64076C13.7252 2.87176 13.4784 2.99851 13.2264 2.99851C13.0922 2.99851 12.9572 2.96251 12.8349 2.88751C12.4817 2.67076 12.3714 2.20876 12.5889 1.85551ZM17.5599 4.96651L16.1102 5.62051C16.0104 5.66626 15.9054 5.68726 15.8027 5.68726C15.5162 5.68726 15.2439 5.52301 15.1187 5.24551C14.9477 4.86826 15.1157 4.42351 15.4937 4.25401L16.9434 3.60001C17.3229 3.42826 17.7654 3.59776 17.9349 3.97501C18.1059 4.35226 17.9379 4.79701 17.5599 4.96651ZM3.14566 1.13251C2.92891 0.779256 3.03991 0.317256 3.39316 0.101256C3.74791 -0.114744 4.20841 -0.00374403 4.42441 0.348756L5.34841 1.85701C5.56516 2.21026 5.45416 2.67226 5.10091 2.88826C4.97866 2.96326 4.84291 2.99851 4.71016 2.99851C4.45741 2.99851 4.21141 2.87101 4.06966 2.64001L3.14566 1.13176V1.13251ZM2.78341 5.29576C2.65516 5.56501 2.38666 5.72176 2.10691 5.72176C1.99816 5.72176 1.88791 5.69851 1.78366 5.64751L0.435163 5.00176C0.0616628 4.82326 -0.0965872 4.37551 0.0826628 4.00201C0.260413 3.62776 0.710413 3.46801 1.08241 3.64951L2.43091 4.29526C2.80441 4.47376 2.96266 4.92226 2.78341 5.29576Z" fill="#0C0C0C"/>
</g>
<defs>
<clipPath id="clip0_3032_492">
<rect width="18" height="18" fill="white"/>
</clipPath>
</defs>
</svg>
