<svg width="26" height="26" viewBox="0 0 26 26" fill="none" xmlns="http://www.w3.org/2000/svg">
<g clip-path="url(#clip0_990_6961)">
<path d="M8.66602 6.5C10.3899 6.5 12.0432 7.18482 13.2622 8.40381C14.4812 9.62279 15.166 11.2761 15.166 13C15.166 14.7239 14.4812 16.3772 13.2622 17.5962C12.0432 18.8152 10.3899 19.5 8.66602 19.5C6.94211 19.5 5.28881 18.8152 4.06982 17.5962C2.85083 16.3772 2.16602 14.7239 2.16602 13C2.16602 11.2761 2.85083 9.62279 4.06982 8.40381C5.28881 7.18482 6.94211 6.5 8.66602 6.5ZM18.416 7.58333C20.041 7.58333 21.1243 10.0089 21.1243 13C21.1243 15.9911 20.041 18.4167 18.416 18.4167C16.791 18.4167 15.7077 15.9911 15.7077 13C15.7077 10.0089 16.791 7.58333 18.416 7.58333ZM22.7493 8.125C23.161 8.125 23.5207 9.02092 23.7027 10.5582L23.7536 11.0381L23.7742 11.2927L23.8067 11.8278L23.8175 12.1084L23.8305 12.6945L23.8327 13L23.8305 13.3055L23.8175 13.8916L23.8067 14.1733L23.7742 14.7073L23.7525 14.9619L23.7038 15.4418C23.5207 16.9802 23.1621 17.875 22.7493 17.875C22.3377 17.875 21.978 16.9791 21.796 15.4418L21.7451 14.9619C21.7376 14.8771 21.7308 14.7922 21.7245 14.7073L21.692 14.1722C21.6878 14.0787 21.6842 13.9851 21.6812 13.8916L21.6682 13.3055V12.6945L21.6812 12.1084L21.692 11.8267L21.7245 11.2927L21.7462 11.0381L21.7949 10.5582C21.978 9.01983 22.3366 8.125 22.7493 8.125Z" fill="#9F9F9F"/>
</g>
<defs>
<clipPath id="clip0_990_6961">
<rect width="26" height="26" fill="white"/>
</clipPath>
</defs>
</svg>
