<svg width="18" height="18" viewBox="0 0 18 18" fill="none" xmlns="http://www.w3.org/2000/svg">
<g clip-path="url(#clip0_3032_548)">
<path d="M18 5.25V3.75H16.5C16.5 2.505 15.495 1.5 14.25 1.5V0H12.75V1.5H11.25V0H9.75V1.5H8.25V0H6.75V1.5H5.25V0H3.75V1.5C2.505 1.5 1.5 2.505 1.5 3.75H0V5.25H1.5V6.75H0V8.25H1.5V9.75H0V11.25H1.5V12.75H0V14.25H1.5C1.5 15.495 2.505 16.5 3.75 16.5V18H5.25V16.5H6.75V18H8.25V16.5H9.75V18H11.25V16.5H12.75V18H14.25V16.5C15.495 16.5 16.5 15.495 16.5 14.25H18V12.75H16.5V11.25H18V9.75H16.5V8.25H18V6.75H16.5V5.25H18ZM15 14.25C15 14.6625 14.6625 15 14.25 15H3.75C3.3375 15 3 14.6625 3 14.25V3.75C3 3.3375 3.3375 3 3.75 3H14.25C14.6625 3 15 3.3375 15 3.75V14.25ZM5.25 12.75H12.75V5.25H5.25V12.75ZM6.75 6.75H11.25V11.25H6.75V6.75Z" fill="#0C0C0C"/>
<path d="M18 5.25V3.75H16.5C16.5 2.505 15.495 1.5 14.25 1.5V0H12.75V1.5H11.25V0H9.75V1.5H8.25V0H6.75V1.5H5.25V0H3.75V1.5C2.505 1.5 1.5 2.505 1.5 3.75H0V5.25H1.5V6.75H0V8.25H1.5V9.75H0V11.25H1.5V12.75H0V14.25H1.5C1.5 15.495 2.505 16.5 3.75 16.5V18H5.25V16.5H6.75V18H8.25V16.5H9.75V18H11.25V16.5H12.75V18H14.25V16.5C15.495 16.5 16.5 15.495 16.5 14.25H18V12.75H16.5V11.25H18V9.75H16.5V8.25H18V6.75H16.5V5.25H18ZM15 14.25C15 14.6625 14.6625 15 14.25 15H3.75C3.3375 15 3 14.6625 3 14.25V3.75C3 3.3375 3.3375 3 3.75 3H14.25C14.6625 3 15 3.3375 15 3.75V14.25ZM5.25 12.75H12.75V5.25H5.25V12.75ZM6.75 6.75H11.25V11.25H6.75V6.75Z" fill="#0C0C0C"/>
</g>
<defs>
<clipPath id="clip0_3032_548">
<rect width="18" height="18" fill="white"/>
</clipPath>
</defs>
</svg>
