<svg width="18" height="16" viewBox="0 0 18 16" fill="none" xmlns="http://www.w3.org/2000/svg">
<path d="M9 4.25H10.25M9 6.75H10.25M4 9.25H10.25M4 11.75H10.25M12.75 4.25H15.5625C16.08 4.25 16.5 4.67 16.5 5.1875V13C16.5 13.4973 16.3025 13.9742 15.9508 14.3258C15.5992 14.6775 15.1223 14.875 14.625 14.875M12.75 4.25V13C12.75 13.4973 12.9475 13.9742 13.2992 14.3258C13.6508 14.6775 14.1277 14.875 14.625 14.875M12.75 4.25V2.0625C12.75 1.545 12.33 1.125 11.8125 1.125H2.4375C1.92 1.125 1.5 1.545 1.5 2.0625V13C1.5 13.4973 1.69754 13.9742 2.04917 14.3258C2.40081 14.6775 2.87772 14.875 3.375 14.875H14.625M4 4.25H6.5V6.75H4V4.25Z" stroke="#0C0C0C" stroke-width="1.5" stroke-linecap="round" stroke-linejoin="round"/>
</svg>
