<svg width="16" height="17" viewBox="0 0 16 17" fill="none" xmlns="http://www.w3.org/2000/svg">
<g clip-path="url(#clip0_3039_500)">
<path d="M9.61133 11.768C9.93933 12.1407 10.072 12.6527 9.99667 13.2507L9.636 15.1607C9.46467 15.942 8.66667 16.5 8 16.5C7.33333 16.5 6.552 15.942 6.38467 15.18L6.02733 13.2907C5.94467 12.6533 6.078 12.1407 6.406 11.7687C6.758 11.3693 7.29467 11.1673 8.00067 11.1673C8.72267 11.1673 9.25933 11.3693 9.61133 11.768ZM9.33333 8.5C9.33333 7.76333 8.73667 7.16667 8 7.16667C7.26333 7.16667 6.66667 7.76333 6.66667 8.5C6.66667 9.23667 7.26333 9.83333 8 9.83333C8.73667 9.83333 9.33333 9.23667 9.33333 8.5ZM8 0.5C3.58867 0.5 0 4.08867 0 8.5C0 11.214 1.35933 13.7207 3.63533 15.206C3.944 15.4067 4.35733 15.32 4.558 15.0113C4.75933 14.7033 4.672 14.29 4.364 14.0887C2.466 12.8513 1.33333 10.762 1.33333 8.5C1.33333 4.824 4.324 1.83333 8 1.83333C11.676 1.83333 14.6667 4.824 14.6667 8.5C14.6667 10.762 13.534 12.8507 11.636 14.0887C11.328 14.29 11.2407 14.7033 11.442 15.0113C11.5693 15.2073 11.7833 15.314 12.0007 15.314C12.126 15.314 12.2513 15.2787 12.364 15.206C14.6407 13.7207 15.9993 11.2147 15.9993 8.5C16 4.08867 12.4113 0.5 8 0.5ZM11.8887 11.0807C12.398 10.3153 12.6667 9.42267 12.6667 8.5C12.6667 5.92733 10.5733 3.83333 8 3.83333C5.42667 3.83333 3.33333 5.92733 3.33333 8.5C3.33333 9.39067 3.60133 10.2713 4.10867 11.048C4.31 11.3567 4.72267 11.4433 5.03133 11.2413C5.33933 11.04 5.426 10.6273 5.22533 10.3187C4.86 9.75933 4.66733 9.13067 4.66733 8.49933C4.66733 6.66133 6.16267 5.166 8.00067 5.166C9.83867 5.166 11.334 6.66133 11.334 8.49933C11.334 9.158 11.142 9.79533 10.7787 10.342C10.5747 10.6487 10.658 11.0627 10.9647 11.2667C11.078 11.342 11.2067 11.378 11.3333 11.378C11.5493 11.378 11.7607 11.274 11.8887 11.0807Z" fill="#0C0C0C"/>
</g>
<defs>
<clipPath id="clip0_3039_500">
<rect width="16" height="16" fill="white" transform="translate(0 0.5)"/>
</clipPath>
</defs>
</svg>
