<svg width="16" height="17" viewBox="0 0 16 17" fill="none" xmlns="http://www.w3.org/2000/svg">
<g clip-path="url(#clip0_3032_523)">
<path d="M11.9861 9.18266C11.2401 8.43866 10.1108 8.30399 9.22615 8.77799L6.00482 5.55666V3.49933C6.00482 2.82399 5.64148 2.19533 5.05682 1.85799L3.06948 0.711992C2.44882 0.353325 1.66148 0.457992 1.15348 0.964659L0.470148 1.64933C-0.037185 2.15533 -0.140518 2.94333 0.217482 3.56399L1.36348 5.55133C1.70082 6.13666 2.33015 6.49999 3.00482 6.49999H5.06215L8.27948 9.71733C8.09415 10.056 7.99548 10.4367 7.99548 10.8333C7.99548 11.4573 8.23882 12.0427 8.68081 12.484L12.0235 15.8173C12.4621 16.2547 13.0595 16.5 13.6768 16.5C14.3335 16.5 15.0688 16.1527 15.4888 15.6407C16.2395 14.726 16.1395 13.324 15.2615 12.4493L11.9861 9.18266ZM2.51815 4.88599L1.37215 2.89799C1.31482 2.79933 1.33148 2.67333 1.41281 2.59199L2.09615 1.90799C2.17748 1.82733 2.30348 1.80999 2.40282 1.86733L4.38948 3.01399C4.56282 3.11399 4.67082 3.30066 4.67082 3.49999V5.16666H3.00415C2.80415 5.16666 2.61815 5.05933 2.51815 4.88599ZM14.4581 14.7947C14.2741 15.0193 14.0141 15.1507 13.7268 15.1653C13.4461 15.1787 13.1661 15.0727 12.9655 14.8733L9.62282 11.54C9.43348 11.3513 9.32948 11.1007 9.32948 10.8333C9.32948 10.566 9.43415 10.316 9.62282 10.1267C9.81882 9.93132 10.0768 9.83333 10.3341 9.83333C10.5915 9.83333 10.8488 9.93132 11.0448 10.1267L14.3208 13.3927C14.7182 13.7893 14.7781 14.4047 14.4581 14.7947ZM6.95815 11.8993C7.21815 12.1607 7.21748 12.582 6.95682 12.842L3.97215 15.8167C3.53348 16.254 2.93682 16.4993 2.31881 16.4993C1.73148 16.4993 0.926815 16.152 0.506815 15.6393C-0.243185 14.7253 -0.143852 13.3233 0.734815 12.4487L4.51348 8.67866C4.77348 8.41866 5.19615 8.41866 5.45615 8.67999C5.71615 8.94066 5.71548 9.36266 5.45481 9.62266L1.67548 13.3927C1.27815 13.7893 1.21681 14.4047 1.53682 14.794C1.72148 15.0193 1.98148 15.1507 2.26882 15.1653C2.55282 15.178 2.82948 15.0727 3.03015 14.8733L6.01548 11.8987C6.27615 11.6387 6.69748 11.6387 6.95881 11.9L6.95815 11.8993ZM6.59548 3.58933C7.20881 2.02733 8.61148 0.873325 10.2561 0.577992C10.8315 0.475325 11.4095 0.473325 11.9755 0.573992C12.4195 0.652659 12.7775 0.965992 12.9101 1.38999C13.0628 1.87599 12.9101 2.41066 12.5021 2.81999L10.9455 4.31466C10.6221 4.63799 10.5695 5.15533 10.8355 5.48066C10.9888 5.66799 11.2041 5.77733 11.4428 5.78999C11.6755 5.80133 11.9055 5.71533 12.0741 5.54666L13.8168 3.86599C14.1408 3.54199 14.6255 3.42133 15.0788 3.56599C15.5215 3.70533 15.8461 4.07399 15.9268 4.52666C16.0268 5.09199 16.0255 5.67133 15.9228 6.24733C15.7355 7.29533 15.1895 8.27133 14.3855 8.99599C14.2581 9.11066 14.0981 9.16733 13.9395 9.16733C13.7575 9.16733 13.5755 9.09332 13.4441 8.94732C13.1975 8.67399 13.2195 8.25199 13.4928 8.00533C14.0775 7.47866 14.4741 6.77066 14.6101 6.01333C14.6755 5.64799 14.6848 5.28333 14.6388 4.92533L13.0088 6.49799C12.5855 6.92266 11.9888 7.15399 11.3768 7.12199C10.7661 7.09132 10.1928 6.80133 9.80348 6.32533C9.10882 5.47599 9.20082 4.17466 10.0128 3.36333L11.5688 1.86866L11.5748 1.86266C11.2181 1.81733 10.8541 1.82666 10.4915 1.89199C9.29948 2.10533 8.28281 2.94333 7.83681 4.07799C7.70282 4.42066 7.31548 4.58933 6.97281 4.45466C6.63015 4.31999 6.46081 3.93333 6.59615 3.59066L6.59548 3.58933Z" fill="#0C0C0C"/>
</g>
<defs>
<clipPath id="clip0_3032_523">
<rect width="16" height="16" fill="white" transform="translate(0 0.5)"/>
</clipPath>
</defs>
</svg>
