<svg width="26" height="26" viewBox="0 0 26 26" fill="none" xmlns="http://www.w3.org/2000/svg">
<path d="M21.6618 7.24536C22.6329 6.66479 23.3595 5.75062 23.706 4.67353C22.7935 5.21498 21.795 5.59639 20.7539 5.80128C19.3105 4.27435 17.0235 3.90276 15.1709 4.89416C13.3182 5.88555 12.3586 7.99448 12.8283 10.0425C9.09033 9.85487 5.6078 8.08919 3.24726 5.18486C2.01533 7.30973 2.64487 10.026 4.68592 11.3924C3.94786 11.3686 3.22616 11.1688 2.58101 10.8095C2.58101 10.829 2.58101 10.8485 2.58101 10.868C2.58143 13.0814 4.14141 14.988 6.31092 15.4267C5.62632 15.6129 4.90823 15.6404 4.21142 15.5069C4.82155 17.3997 6.5661 18.6965 8.5545 18.7352C6.90766 20.0278 4.87385 20.7287 2.78034 20.7253C2.40927 20.7258 2.03848 20.7045 1.66992 20.6614C3.79584 22.0275 6.27016 22.7526 8.79717 22.75C12.3129 22.7742 15.6915 21.3882 18.1775 18.902C20.6634 16.4159 22.0491 13.0371 22.0247 9.52144C22.0247 9.31994 22.02 9.11953 22.0106 8.92019C22.9211 8.26218 23.7069 7.44702 24.3311 6.51303C23.4829 6.88901 22.5831 7.13586 21.6618 7.24536Z" fill="#9F9F9F"/>
</svg>
