<svg width="18" height="18" viewBox="0 0 18 18" fill="none" xmlns="http://www.w3.org/2000/svg">
<g clip-path="url(#clip0_3032_527)">
<mask id="mask0_3032_527" style="mask-type:luminance" maskUnits="userSpaceOnUse" x="0" y="0" width="18" height="18">
<path d="M0 0H18V18H0V0Z" fill="white"/>
</mask>
<g mask="url(#mask0_3032_527)">
<path d="M6.75 9.00031C6.75 7.75756 7.75725 6.75031 9 6.75031C10.2427 6.75031 11.25 7.75756 11.25 9.00031C11.25 10.2431 10.2427 11.2503 9 11.2503C7.75725 11.2503 6.75 10.2431 6.75 9.00031Z" stroke="#0C0C0C" stroke-width="1.5" stroke-miterlimit="10"/>
<path d="M5.25 17.2502C5.25 15.1787 6.9285 13.5002 9 13.5002C11.0715 13.5002 12.75 15.1787 12.75 17.2502" stroke="#0C0C0C" stroke-width="1.5" stroke-miterlimit="10" stroke-linecap="round"/>
<path d="M11.25 3.00012C11.25 1.75737 12.2573 0.750122 13.5 0.750122C14.7427 0.750122 15.75 1.75737 15.75 3.00012C15.75 4.24287 14.7427 5.25012 13.5 5.25012C12.2573 5.25012 11.25 4.24287 11.25 3.00012Z" stroke="#0C0C0C" stroke-width="1.5" stroke-miterlimit="10"/>
<path d="M13.5 7.50031C15.5715 7.50031 17.25 9.17881 17.25 11.2503" stroke="#0C0C0C" stroke-width="1.5" stroke-miterlimit="10" stroke-linecap="round"/>
<path d="M6.75 3.00012C6.75 1.75737 5.74275 0.750122 4.5 0.750122C3.25725 0.750122 2.25 1.75737 2.25 3.00012C2.25 4.24287 3.25725 5.25012 4.5 5.25012C5.74275 5.25012 6.75 4.24287 6.75 3.00012Z" stroke="#0C0C0C" stroke-width="1.5" stroke-miterlimit="10"/>
<path d="M4.5 7.50037C2.4285 7.50037 0.75 9.17887 0.75 11.2504" stroke="#0C0C0C" stroke-width="1.5" stroke-miterlimit="10" stroke-linecap="round"/>
</g>
</g>
<defs>
<clipPath id="clip0_3032_527">
<rect width="18" height="18" fill="white"/>
</clipPath>
</defs>
</svg>
