<svg width="18" height="19" viewBox="0 0 18 19" fill="none" xmlns="http://www.w3.org/2000/svg">
<path d="M16.125 14.875C15.78 14.875 15.4605 14.9748 15.183 15.1375L12.843 13.4357L14.25 12.6318V6.61825L12.843 5.81425L15.183 4.1125C15.4605 4.27525 15.78 4.375 16.125 4.375C17.1607 4.375 18 3.53575 18 2.5C18 1.46425 17.1607 0.625 16.125 0.625C15.0892 0.625 14.25 1.46425 14.25 2.5C14.25 2.63875 14.2673 2.773 14.2958 2.90275L11.415 4.99825L9 3.61825L6.585 4.99825L3.70425 2.90275C3.73275 2.773 3.75 2.63875 3.75 2.5C3.75 1.46425 2.91075 0.625 1.875 0.625C0.83925 0.625 0 1.46425 0 2.5C0 3.53575 0.83925 4.375 1.875 4.375C2.22 4.375 2.5395 4.27525 2.817 4.1125L5.157 5.81425L3.75 6.61825V12.6318L5.157 13.4357L2.817 15.1375C2.5395 14.9748 2.22 14.875 1.875 14.875C0.83925 14.875 0 15.7142 0 16.75C0 17.7857 0.83925 18.625 1.875 18.625C2.91075 18.625 3.75 17.7857 3.75 16.75C3.75 16.6112 3.73275 16.477 3.70425 16.3472L6.585 14.2518L9 15.6318L11.415 14.2518L14.2958 16.3472C14.2673 16.477 14.25 16.6112 14.25 16.75C14.25 17.7857 15.0892 18.625 16.125 18.625C17.1607 18.625 18 17.7857 18 16.75C18 15.7142 17.1607 14.875 16.125 14.875ZM5.25 8.2255L8.25 9.93925V13.4762L5.25 11.7618V8.2255ZM9.75 9.93925L12.75 8.2255V11.7618L9.75 13.4762V9.93925ZM11.8837 6.99325L9 8.64025L6.11625 6.99325L9 5.3455L11.8837 6.99325Z" fill="#2FBF71"/>
</svg>
