<svg width="26" height="26" viewBox="0 0 26 26" fill="none" xmlns="http://www.w3.org/2000/svg">
<path d="M10.8327 16.25L16.4552 13L10.8327 9.74996V16.25ZM23.356 7.76746C23.4968 8.27663 23.5943 8.95913 23.6593 9.82579C23.7352 10.6925 23.7677 11.44 23.7677 12.09L23.8327 13C23.8327 15.3725 23.6593 17.1166 23.356 18.2325C23.0852 19.2075 22.4568 19.8358 21.4818 20.1066C20.9727 20.2475 20.041 20.345 18.611 20.41C17.2027 20.4858 15.9135 20.5183 14.7218 20.5183L12.9993 20.5833C8.46018 20.5833 5.63268 20.41 4.51685 20.1066C3.54185 19.8358 2.91352 19.2075 2.64268 18.2325C2.50185 17.7233 2.40435 17.0408 2.33935 16.1741C2.26352 15.3075 2.23102 14.56 2.23102 13.91L2.16602 13C2.16602 10.6275 2.33935 8.88329 2.64268 7.76746C2.91352 6.79246 3.54185 6.16413 4.51685 5.89329C5.02602 5.75246 5.95768 5.65496 7.38768 5.58996C8.79602 5.51413 10.0852 5.48163 11.2768 5.48163L12.9993 5.41663C17.5385 5.41663 20.366 5.58996 21.4818 5.89329C22.4568 6.16413 23.0852 6.79246 23.356 7.76746Z" fill="#9F9F9F"/>
</svg>
