<svg width="49" height="38" viewBox="0 0 49 38" fill="none" xmlns="http://www.w3.org/2000/svg">
<g clip-path="url(#clip0_2038_365)">
<path d="M40.7964 3.11187C37.6486 1.63903 34.3184 0.592521 30.894 0C30.4674 0.771172 29.969 1.8084 29.6254 2.63357C25.9332 2.07833 22.2749 2.07833 18.6506 2.63357C18.3071 1.80859 17.7975 0.771172 17.367 0C13.9392 0.592778 10.6062 1.64196 7.45693 3.11956C1.19006 12.5898 -0.508844 21.8246 0.340514 30.9286C4.49712 34.0326 8.52529 35.9183 12.4856 37.1522C13.4699 35.7987 14.3399 34.3657 15.0867 32.8681C13.6648 32.3268 12.294 31.6596 10.9907 30.8746C11.3336 30.6204 11.6685 30.3554 11.9949 30.0802C19.8926 33.7743 28.4739 33.7743 36.2775 30.0802C36.6053 30.3536 36.9401 30.6185 37.2816 30.8746C35.9762 31.6617 34.6028 32.3302 33.178 32.872C33.9291 34.3757 34.7976 35.8101 35.7792 37.1559C39.7432 35.9222 43.7751 34.0366 47.9317 30.9286C48.9285 20.3748 46.2293 11.2248 40.7964 3.11187ZM16.1628 25.3298C13.7919 25.3298 11.8475 23.1164 11.8475 20.4211C11.8475 17.7259 13.7504 15.5087 16.1628 15.5087C18.5751 15.5087 20.5194 17.722 20.478 20.4211C20.4817 23.1164 18.5753 25.3298 16.1628 25.3298ZM32.1095 25.3298C29.7386 25.3298 27.7945 23.1164 27.7945 20.4211C27.7945 17.7259 29.6972 15.5087 32.1095 15.5087C34.522 15.5087 36.4662 17.722 36.4247 20.4211C36.4247 23.1164 34.522 25.3298 32.1095 25.3298Z" fill="#5865F2"/>
</g>
<defs>
<clipPath id="clip0_2038_365">
<rect width="48" height="37.3117" fill="white" transform="translate(0.135742)"/>
</clipPath>
</defs>
</svg>
