<svg width="48" height="48" viewBox="0 0 48 48" fill="none" xmlns="http://www.w3.org/2000/svg">
<mask id="mask0_2038_327" style="mask-type:luminance" maskUnits="userSpaceOnUse" x="3" y="5" width="42" height="38">
<path d="M24 18.8403C32.84 18.8403 40 23.5803 40 29.4203C40 35.2603 32.84 40.0003 24 40.0003C15.16 40.0003 8 35.2603 8 29.4203C8 23.5803 15.16 18.8403 24 18.8403Z" fill="white" stroke="white" stroke-width="4" stroke-linecap="round" stroke-linejoin="round"/>
<path d="M7.88039 28.4205C10.3546 28.4205 12.3604 26.4147 12.3604 23.9405C12.3604 21.4662 10.3546 19.4604 7.88039 19.4604C5.40615 19.4604 3.40039 21.4662 3.40039 23.9405C3.40039 26.4147 5.40615 28.4205 7.88039 28.4205Z" fill="white"/>
<path d="M40.1206 28.4205C42.5949 28.4205 44.6006 26.4147 44.6006 23.9405C44.6006 21.4662 42.5949 19.4604 40.1206 19.4604C37.6464 19.4604 35.6406 21.4662 35.6406 23.9405C35.6406 26.4147 37.6464 28.4205 40.1206 28.4205Z" fill="white"/>
<path d="M36.9007 11.6802C38.679 11.6802 40.1207 10.2386 40.1207 8.46023C40.1207 6.68188 38.679 5.24023 36.9007 5.24023C35.1223 5.24023 33.6807 6.68188 33.6807 8.46023C33.6807 10.2386 35.1223 11.6802 36.9007 11.6802Z" fill="white"/>
<path d="M24 17.5002L26.36 6.22021L36.42 8.36021" stroke="white" stroke-width="1.6" stroke-linecap="round" stroke-linejoin="round"/>
<path d="M16.9007 30.4004C18.679 30.4004 20.1207 28.9588 20.1207 27.1805C20.1207 25.4021 18.679 23.9604 16.9007 23.9604C15.1223 23.9604 13.6807 25.4021 13.6807 27.1805C13.6807 28.9588 15.1223 30.4004 16.9007 30.4004Z" fill="black"/>
<path d="M31.1009 30.4004C32.8792 30.4004 34.3209 28.9588 34.3209 27.1805C34.3209 25.4021 32.8792 23.9604 31.1009 23.9604C29.3225 23.9604 27.8809 25.4021 27.8809 27.1805C27.8809 28.9588 29.3225 30.4004 31.1009 30.4004Z" fill="black"/>
<path d="M16.9404 35.04C16.9404 35.04 18.8204 37.16 24.0004 37.16C29.1604 37.16 31.0604 35.04 31.0604 35.04" stroke="black" stroke-width="1.6" stroke-linecap="round" stroke-linejoin="round"/>
</mask>
<g mask="url(#mask0_2038_327)">
<path d="M48 0H0V48H48V0Z" fill="#FF4500"/>
</g>
</svg>
