<svg width="48" height="48" viewBox="0 0 48 48" fill="none" xmlns="http://www.w3.org/2000/svg">
<path fill-rule="evenodd" clip-rule="evenodd" d="M39.5543 8.85993C40.0485 8.65191 40.5895 8.58017 41.1209 8.65216C41.6522 8.72416 42.1546 8.93727 42.5757 9.2693C42.9967 9.60133 43.3211 10.0402 43.515 10.5401C43.7089 11.04 43.7653 11.5828 43.6783 12.1119L39.1423 39.6259C38.7023 42.2799 35.7903 43.8019 33.3563 42.4799C31.3203 41.3739 28.2963 39.6699 25.5763 37.8919C24.2163 37.0019 20.0503 34.1519 20.5623 32.1239C21.0023 30.3899 28.0023 23.8739 32.0023 19.9999C33.5723 18.4779 32.8563 17.5999 31.0023 18.9999C26.3983 22.4759 19.0063 27.7619 16.5623 29.2499C14.4063 30.5619 13.2823 30.7859 11.9383 30.5619C9.48628 30.1539 7.21228 29.5219 5.35628 28.7519C2.84828 27.7119 2.97028 24.2639 5.35428 23.2599L39.5543 8.85993Z" fill="#1098F7"/>
</svg>
