<svg width="49" height="48" viewBox="0 0 49 48" fill="none" xmlns="http://www.w3.org/2000/svg">
<path fill-rule="evenodd" clip-rule="evenodd" d="M24.3086 8C26.0186 8 27.7726 8.044 29.4726 8.116L31.4806 8.212L33.4026 8.326L35.2026 8.448L36.8466 8.576C38.631 8.71178 40.3102 9.47287 41.5885 10.7252C42.8668 11.9775 43.6622 13.6408 43.8346 15.422L43.9146 16.272L44.0646 18.092C44.2046 19.978 44.3086 22.034 44.3086 24C44.3086 25.966 44.2046 28.022 44.0646 29.908L43.9146 31.728L43.8346 32.578C43.6621 34.3595 42.8665 36.023 41.5877 37.2754C40.309 38.5278 38.6293 39.2887 36.8446 39.424L35.2046 39.55L33.4046 39.674L31.4806 39.788L29.4726 39.884C27.7523 39.9585 26.0305 39.9972 24.3086 40C22.5866 39.9972 20.8649 39.9585 19.1446 39.884L17.1366 39.788L15.2146 39.674L13.4146 39.55L11.7706 39.424C9.98622 39.2882 8.30699 38.5271 7.02868 37.2748C5.75037 36.0225 4.95498 34.3592 4.78259 32.578L4.70259 31.728L4.55259 29.908C4.40026 27.9422 4.31887 25.9716 4.30859 24C4.30859 22.034 4.41259 19.978 4.55259 18.092L4.70259 16.272L4.78259 15.422C4.95491 13.6411 5.75002 11.9781 7.02792 10.7258C8.30582 9.47352 9.98458 8.71223 11.7686 8.576L13.4106 8.448L15.2106 8.326L17.1346 8.212L19.1426 8.116C20.8636 8.04145 22.586 8.00278 24.3086 8ZM20.3086 19.15V28.85C20.3086 29.774 21.3086 30.35 22.1086 29.89L30.5086 25.04C30.6914 24.9348 30.8432 24.7832 30.9488 24.6007C31.0543 24.4181 31.1099 24.2109 31.1099 24C31.1099 23.7891 31.0543 23.5819 30.9488 23.3993C30.8432 23.2168 30.6914 23.0652 30.5086 22.96L22.1086 18.112C21.9261 18.0066 21.7191 17.9512 21.5084 17.9512C21.2977 17.9513 21.0907 18.0068 20.9083 18.1122C20.7258 18.2176 20.5743 18.3692 20.4691 18.5517C20.3638 18.7343 20.3085 18.9413 20.3086 19.152V19.15Z" fill="#FF1931"/>
</svg>
