<svg width="180" height="53" viewBox="0 0 180 53" fill="none" xmlns="http://www.w3.org/2000/svg">
<g clip-path="url(#clip0_2038_1695)">
<path d="M29.357 29.2611C28.8412 29.5763 28.2396 29.6336 27.7811 29.3757C27.2081 29.0319 26.8642 28.2583 26.8642 27.1982V23.9605C26.8642 22.4132 26.2625 21.2958 25.2311 21.0093C23.4833 20.4935 22.1653 22.6424 21.6782 23.4447L18.5837 28.4016V22.2986C18.5551 20.8947 18.0966 20.0637 17.2371 19.8059C16.664 19.634 15.8044 19.7199 14.9735 20.9806L8.0683 32.0404C7.15143 30.2926 6.66434 28.3443 6.66434 26.3673C6.66434 19.6913 12.0223 14.276 18.5837 14.276C25.1451 14.276 30.5031 19.6913 30.5031 26.3673V26.3959V26.4246C30.5604 27.7139 30.1593 28.7454 29.357 29.2611ZM33.1391 26.3673V26.3386V26.3099C33.1105 18.2013 26.5777 11.5826 18.5837 11.5826C10.5611 11.5826 4.02832 18.2013 4.02832 26.3673C4.02832 34.5045 10.5611 41.1519 18.5837 41.1519C22.2799 41.1519 25.7755 39.7479 28.4688 37.1978C29.0132 36.6821 29.0418 35.8512 28.5261 35.3068C28.039 34.7624 27.2081 34.7337 26.6637 35.2208C26.6637 35.2208 26.6637 35.2208 26.635 35.2495C24.4574 37.3124 21.5349 38.4872 18.5264 38.4872C15.0022 38.4872 11.8504 36.94 9.67283 34.4759L15.8904 24.5049V29.1179C15.8904 31.3241 16.75 32.0404 17.4663 32.241C18.1826 32.4415 19.2714 32.2983 20.4461 30.4359L23.8557 24.906C23.9704 24.7341 24.0563 24.5622 24.1709 24.4475V27.2555C24.1709 29.3184 25.0018 30.9803 26.4345 31.7825C27.7238 32.5275 29.357 32.4415 30.7037 31.6106C32.3655 30.5218 33.2537 28.6308 33.1391 26.3673ZM53.425 21.3244C53.7688 21.525 54.084 22.0121 54.084 22.4419C54.084 23.1295 53.5109 23.7026 52.8519 23.7026C52.68 23.7026 52.5367 23.6453 52.3935 23.6166C51.6199 23.0436 50.6457 22.6711 49.6142 22.6711C47.1788 22.6711 45.5169 24.6481 45.5169 27.1122C45.5169 29.5763 47.2074 31.5247 49.6142 31.5247C50.8176 31.5247 51.9064 31.0376 52.7087 30.264C52.9092 30.1207 53.1671 30.0347 53.425 30.0347C54.084 30.0347 54.5997 30.5505 54.5997 31.2095C54.5997 31.6393 54.3418 32.0118 54.0267 32.2123C52.8519 33.2152 51.276 33.8742 49.6429 33.8742C45.918 33.8742 42.8809 30.8084 42.8809 27.0263C42.8809 23.2441 45.918 20.1783 49.6429 20.1783C51.0182 20.1497 52.3362 20.5795 53.425 21.3244ZM60.2442 24.1897C62.7943 24.1897 64.9146 26.3386 64.9146 29.0033C64.9146 31.6393 62.7656 33.9028 60.2442 33.9028C57.5796 33.9028 55.3733 31.6679 55.3733 29.0033C55.3733 26.3386 57.5796 24.1897 60.2442 24.1897ZM60.2156 31.5247C61.333 31.5247 62.2785 30.4645 62.2785 29.0319C62.2785 27.5993 61.333 26.6824 60.2156 26.6824C59.0122 26.6824 58.0093 27.5706 58.0093 29.0319C58.0093 30.4359 59.0122 31.5247 60.2156 31.5247ZM66.5191 32.4129V25.6509C66.5191 24.906 67.0921 24.3043 67.8371 24.3043C68.5534 24.3043 69.1551 24.906 69.1551 25.6509V32.4129C69.1551 33.1579 68.5534 33.7596 67.8371 33.7596C67.1208 33.7596 66.5191 33.1292 66.5191 32.4129ZM66.3185 21.7542C66.3185 20.866 67.0062 20.1783 67.8371 20.1783C68.6967 20.1783 69.3843 20.8947 69.3843 21.7542C69.3843 22.6138 68.6967 23.3014 67.8371 23.3014C66.9775 23.2728 66.3185 22.5851 66.3185 21.7542ZM74.1979 28.7454V32.4129C74.1979 33.1579 73.5962 33.7596 72.8799 33.7596C72.1636 33.7596 71.5619 33.1579 71.5619 32.4129V25.3358C71.5619 24.7627 72.0203 24.3043 72.5934 24.3043C73.1664 24.3043 73.5962 24.7914 73.5962 25.3358C74.6564 24.3329 75.6019 24.1897 76.4901 24.1897C79.1261 24.1897 80.3009 26.1667 80.3009 28.4302V32.4129C80.3009 33.1579 79.6992 33.7596 78.9828 33.7596C78.2665 33.7596 77.6648 33.1579 77.6648 32.4129V28.7454C77.6648 27.5993 77.5216 26.6251 75.8597 26.6251C74.685 26.6251 74.1979 27.5993 74.1979 28.7454ZM88.8393 30.1494C88.5241 30.1494 88.3235 30.0061 88.1516 29.8055L85.0858 26.4819V32.4129C85.0858 33.1579 84.4841 33.7596 83.7678 33.7596C83.0515 33.7596 82.4498 33.1579 82.4498 32.4129V20.6654C82.5357 20.4649 82.7363 20.3216 82.9369 20.3216C83.1661 20.3216 83.3667 20.5222 83.5099 20.6654L88.4095 26.1667C88.5527 26.3386 88.7247 26.4246 88.8393 26.4246C88.9252 26.4246 89.1258 26.3386 89.2691 26.1667L94.1686 20.6654C94.3119 20.5222 94.4838 20.3216 94.7416 20.3216C94.9709 20.3216 95.1714 20.4649 95.2287 20.6654V32.4129C95.2287 33.1579 94.6557 33.7596 93.9107 33.7596C93.1944 33.7596 92.5927 33.1579 92.5927 32.4129V26.4819L89.5269 29.8055C89.2977 30.0061 89.0971 30.1494 88.8393 30.1494ZM101.504 31.5247C102.678 31.5247 103.681 30.4645 103.681 29.0319C103.681 27.5993 102.65 26.6538 101.504 26.6538C100.358 26.6538 99.412 27.628 99.412 29.0319C99.412 30.4072 100.329 31.5247 101.504 31.5247ZM104.312 32.7281L104.254 32.4129C103.738 33.4157 102.105 33.8742 101.074 33.8742C98.6097 33.8742 96.776 31.6393 96.776 28.9746C96.776 26.3386 98.6384 24.161 101.217 24.161C101.647 24.161 103.137 24.2756 104.283 25.6223L104.34 25.3071C104.34 24.7341 104.77 24.2756 105.343 24.2756C105.916 24.2756 106.374 24.7627 106.374 25.3071V32.6994C106.374 33.2725 105.916 33.7309 105.343 33.7309C104.741 33.7596 104.312 33.2725 104.312 32.7281ZM113.624 26.6251H113.337C111.675 26.7111 111.36 27.6566 111.36 28.7454V32.4129C111.36 33.1579 110.758 33.7596 110.042 33.7596C109.326 33.7596 108.724 33.1579 108.724 32.4129V25.3358C108.724 24.7627 109.182 24.3043 109.755 24.3043C110.329 24.3043 110.758 24.7914 110.758 25.3358C111.732 24.4189 112.535 24.2183 113.337 24.1897H113.595C114.225 24.1897 114.798 24.7341 114.798 25.4217C114.827 26.0521 114.254 26.6251 113.624 26.6251ZM123.795 31.7825C123.91 31.9831 123.996 32.1837 123.996 32.4129C123.996 33.1006 123.365 33.7309 122.678 33.7309C122.219 33.7309 121.818 33.3871 121.503 32.9859L118.466 29.4617V32.3842C118.466 33.1292 117.864 33.7309 117.148 33.7309C116.431 33.7309 115.83 33.1292 115.83 32.3842V21.6396C115.83 20.8947 116.403 20.293 117.148 20.293C117.893 20.293 118.466 20.8947 118.466 21.6396V28.3443L121.503 24.9919C121.818 24.6481 122.191 24.2756 122.649 24.2756C123.308 24.2756 123.91 24.8773 123.91 25.565C123.91 25.7656 123.852 25.9948 123.738 26.1667L121.331 28.8027L123.795 31.7825ZM128.953 26.6538C128.236 26.6538 127.061 27.0263 127.061 28.1437H130.872C130.844 27.0263 129.64 26.6538 128.953 26.6538ZM132.391 29.8342H127.061C127.061 31.4101 128.58 31.6679 129.239 31.6679C129.726 31.6679 130.414 31.582 130.958 31.3241C131.13 31.2095 131.388 31.1235 131.646 31.1235C132.219 31.1235 132.706 31.6106 132.706 32.2123C132.706 32.6135 132.448 32.9573 132.133 33.1579C131.331 33.7596 130.271 33.9028 129.268 33.9028C126.603 33.9028 124.397 32.4702 124.397 29.1179C124.397 26.4819 125.743 24.1897 128.895 24.1897C131.445 24.1897 133.365 25.8515 133.422 28.8027C133.422 29.3471 132.964 29.8342 132.391 29.8342ZM139.726 33.8742H139.01C137.004 33.8742 135.829 32.9859 135.829 29.8628V26.6251H135.141C134.511 26.6251 133.967 26.0521 133.967 25.4217C133.967 24.7341 134.54 24.1897 135.141 24.1897H135.829V21.6969C135.829 20.952 136.402 20.3503 137.147 20.3503C137.863 20.3503 138.465 20.952 138.465 21.6969V24.1897H139.554C140.184 24.1897 140.729 24.7341 140.729 25.4217C140.729 26.0521 140.156 26.6251 139.554 26.6251H138.465V29.3471C138.465 31.1522 138.551 31.5247 139.353 31.5247H139.726C140.356 31.5247 140.901 32.0404 140.901 32.6994C140.901 33.3298 140.356 33.8742 139.726 33.8742ZM152.476 21.3244C152.82 21.525 153.135 22.0121 153.135 22.4419C153.135 23.1295 152.562 23.7026 151.903 23.7026C151.731 23.7026 151.588 23.6453 151.445 23.6166C150.671 23.0436 149.697 22.6711 148.665 22.6711C146.23 22.6711 144.568 24.6481 144.568 27.1122C144.568 29.5763 146.259 31.5247 148.665 31.5247C149.869 31.5247 150.958 31.0376 151.76 30.264C151.96 30.1207 152.218 30.0347 152.476 30.0347C153.135 30.0347 153.651 30.5505 153.651 31.2095C153.651 31.6393 153.393 32.0118 153.078 32.2123C151.903 33.2152 150.327 33.8742 148.694 33.8742C144.969 33.8742 141.932 30.8084 141.932 27.0263C141.932 23.2441 144.969 20.1783 148.694 20.1783C150.069 20.1497 151.416 20.5795 152.476 21.3244ZM159.152 31.5247C160.327 31.5247 161.33 30.4645 161.33 29.0319C161.33 27.5993 160.298 26.6538 159.152 26.6538C157.977 26.6538 157.061 27.628 157.061 29.0319C157.061 30.4072 158.006 31.5247 159.152 31.5247ZM161.96 32.7281L161.903 32.4129C161.387 33.4157 159.754 33.8742 158.722 33.8742C156.258 33.8742 154.424 31.6393 154.424 28.9746C154.424 26.3386 156.287 24.161 158.866 24.161C159.295 24.161 160.785 24.2756 161.931 25.6223L161.989 25.3071C161.989 24.7341 162.418 24.2756 162.992 24.2756C163.565 24.2756 164.023 24.7627 164.023 25.3071V32.6994C164.023 33.2725 163.565 33.7309 162.992 33.7309C162.39 33.7596 161.96 33.2725 161.96 32.7281ZM171.215 31.5247C172.39 31.5247 173.306 30.4072 173.306 29.0319C173.306 27.5993 172.361 26.6538 171.215 26.6538C170.04 26.6538 169.037 27.5993 169.037 29.0319C169.037 30.4645 170.04 31.5247 171.215 31.5247ZM169.037 33.1006V36.4529C169.037 37.1978 168.435 37.7995 167.719 37.7995C167.003 37.7995 166.401 37.1978 166.401 36.4529V25.3358C166.401 24.7627 166.86 24.3043 167.433 24.3043C168.006 24.3043 168.435 24.7914 168.435 25.4504C169.41 24.4475 170.613 24.1897 171.53 24.1897C174.08 24.1897 175.971 26.3386 175.971 29.0033C175.971 31.6393 174.166 33.9028 171.673 33.9028C170.9 33.8742 169.753 33.6449 169.037 33.1006Z" fill="#9F9F9F"/>
</g>
<defs>
<clipPath id="clip0_2038_1695">
<rect width="180" height="52.7344" fill="white"/>
</clipPath>
</defs>
</svg>
