<svg width="162" height="46" viewBox="0 0 162 46" fill="none" xmlns="http://www.w3.org/2000/svg">
<g opacity="0.5">
<path fill-rule="evenodd" clip-rule="evenodd" d="M22.9508 1.00025C35.133 1.00025 44.9591 10.8264 44.9591 23.066C44.9591 35.1332 35.018 45.0743 22.7784 45.0168C10.9411 44.9019 1 35.1332 1 23.0085C1 10.8264 10.7687 0.942786 22.9508 1.00025ZM6.22912 34.5011C6.22912 34.731 6.34405 34.8459 6.45897 35.0183C7.32092 36.225 8.29779 37.3743 9.44705 38.3511C9.96421 38.8108 10.4814 39.2705 11.056 39.6728C12.665 40.7071 14.3314 41.684 16.1702 42.3161C17.6642 42.8332 19.2157 43.2355 20.7672 43.4079C21.974 43.5228 23.2381 43.5803 24.4449 43.4079C25.1344 43.2929 25.8814 43.2929 26.571 43.0056C26.6859 43.0631 26.7434 42.9482 26.8008 42.9482C28.2374 42.7183 29.6165 42.2586 30.9956 41.684C35.4777 39.7302 38.8681 36.5698 41.0516 32.2026C43.0054 28.3526 43.6375 24.2727 43.0054 20.0205C42.4308 15.9406 40.7069 12.3779 37.9487 9.38983C34.271 5.19504 29.5591 3.01145 23.9852 2.66667C21.5143 2.49429 19.0434 2.83906 16.6874 3.64354C12.8374 4.90773 9.6769 7.09132 7.09107 10.2518C4.16046 13.8719 2.72389 18.0093 2.5515 22.6063C2.49403 23.7556 2.60896 24.8474 2.78135 25.9966C3.12613 28.5824 3.98807 31.0534 5.30972 33.2944C5.65449 33.6392 5.88435 34.0989 6.22912 34.5011Z" fill="#9F9F9F" stroke="white"/>
<path fill-rule="evenodd" clip-rule="evenodd" d="M26.5714 42.9482C25.8818 43.293 25.1348 43.293 24.4452 43.3504C23.2385 43.5228 21.9743 43.4654 20.7676 43.3504C19.2161 43.178 17.6646 42.7758 16.1706 42.2586C14.3318 41.6265 12.6653 40.6497 11.0564 39.6153C10.4817 39.2131 9.96458 38.7534 9.44741 38.2937C8.29816 37.3168 7.32129 36.1676 6.45934 34.9609C6.34442 34.7885 6.22949 34.6161 6.22949 34.4437C7.6086 31.3407 8.12577 28.0653 8.41308 24.7325C8.52801 23.181 8.58547 21.6295 8.87278 20.078C9.1601 18.2966 9.84965 16.6877 11.1138 15.3085C12.2631 14.1018 13.6997 13.2973 15.2512 12.7227C16.5154 12.2055 17.837 11.7458 19.2736 11.6884C20.5952 11.6309 21.8594 11.8033 23.1236 12.0906C25.0199 12.5503 26.9161 13.125 28.6975 13.9869C30.1341 14.5615 31.6281 15.1362 33.1221 15.5959C34.6736 16.0556 36.2251 16.5727 37.5468 17.5496C39.2132 18.8138 39.6729 20.4227 38.9259 22.3765C38.4662 23.5832 37.6042 24.5026 36.7423 25.422C35.1908 27.031 33.5244 28.525 32.0303 30.1914C30.3064 32.2026 28.7549 34.2713 27.6632 36.6847C26.7437 38.6959 26.2266 40.7646 26.5714 42.9482ZM37.6617 24.0429C37.6042 24.0429 37.5468 24.0429 37.4893 24.1004C37.4318 24.1004 37.3744 24.1578 37.3744 24.2153C37.3744 24.2153 37.3744 24.2153 37.3744 24.2728C37.4318 24.2728 37.4893 24.2153 37.4893 24.1578L37.6617 24.0429C37.7766 24.0429 37.7192 24.0429 37.6617 24.0429ZM20.0781 14.0444C17.8945 14.0444 16.1131 15.8257 16.1131 17.9518C16.1131 20.1354 17.8945 21.8593 20.0206 21.9168C22.2042 21.9168 23.9281 20.1354 23.9855 17.9518C23.9855 15.7682 22.2616 14.0444 20.0781 14.0444ZM23.296 26.1116C23.6408 26.6287 24.2728 27.0884 25.0199 27.3183C26.5139 27.8355 28.0079 27.8355 29.502 27.5481C32.1453 27.031 34.6162 26.1116 36.8572 24.6175C36.9721 24.5026 37.202 24.5026 37.2595 24.2728C37.1445 24.2153 37.0871 24.2728 37.0296 24.3302C36.2826 24.7899 35.4781 25.1347 34.6736 25.4795C32.605 26.3414 30.4214 26.916 28.1229 27.031C26.4564 27.1459 24.79 27.031 23.296 26.1116ZM34.1565 22.7213C34.6162 22.7213 35.0184 22.319 35.0184 21.8019C35.0184 21.3421 34.6162 20.9399 34.099 20.9974C33.6393 20.9974 33.2945 21.3996 33.2945 21.8593C33.2945 22.3765 33.6393 22.7213 34.1565 22.7213Z" fill="#9F9F9F"/>
<path d="M37.6617 24.0429C37.6042 24.0429 37.5468 24.0429 37.4893 24.1004C37.4318 24.1004 37.3744 24.1578 37.3744 24.2153C37.3744 24.2153 37.3744 24.2153 37.3744 24.2728C37.4318 24.2728 37.4893 24.2153 37.4893 24.1578L37.6617 24.0429ZM37.6617 24.0429C37.7192 24.0429 37.7766 24.0429 37.6617 24.0429ZM26.5714 42.9482C25.8818 43.293 25.1348 43.293 24.4452 43.3504C23.2385 43.5228 21.9743 43.4654 20.7676 43.3504C19.2161 43.178 17.6646 42.7758 16.1706 42.2586C14.3318 41.6265 12.6653 40.6497 11.0564 39.6153C10.4817 39.2131 9.96458 38.7534 9.44741 38.2937C8.29816 37.3168 7.32129 36.1676 6.45934 34.9609C6.34442 34.7885 6.22949 34.6161 6.22949 34.4437C7.6086 31.3407 8.12577 28.0653 8.41308 24.7325C8.52801 23.181 8.58547 21.6295 8.87278 20.078C9.1601 18.2966 9.84965 16.6877 11.1138 15.3085C12.2631 14.1018 13.6997 13.2973 15.2512 12.7227C16.5154 12.2055 17.837 11.7458 19.2736 11.6884C20.5952 11.6309 21.8594 11.8033 23.1236 12.0906C25.0199 12.5503 26.9161 13.125 28.6975 13.9869C30.1341 14.5615 31.6281 15.1362 33.1221 15.5959C34.6736 16.0556 36.2251 16.5727 37.5468 17.5496C39.2132 18.8138 39.6729 20.4227 38.9259 22.3765C38.4662 23.5832 37.6042 24.5026 36.7423 25.422C35.1908 27.031 33.5244 28.525 32.0303 30.1914C30.3064 32.2026 28.7549 34.2713 27.6632 36.6847C26.7437 38.6959 26.2266 40.7646 26.5714 42.9482ZM20.0781 14.0444C17.8945 14.0444 16.1131 15.8257 16.1131 17.9518C16.1131 20.1354 17.8945 21.8593 20.0206 21.9168C22.2042 21.9168 23.9281 20.1354 23.9855 17.9518C23.9855 15.7682 22.2616 14.0444 20.0781 14.0444ZM23.296 26.1116C23.6408 26.6287 24.2728 27.0884 25.0199 27.3183C26.5139 27.8355 28.0079 27.8355 29.502 27.5481C32.1453 27.031 34.6162 26.1116 36.8572 24.6175C36.9721 24.5026 37.202 24.5026 37.2595 24.2728C37.1445 24.2153 37.0871 24.2728 37.0296 24.3302C36.2826 24.7899 35.4781 25.1347 34.6736 25.4795C32.605 26.3414 30.4214 26.916 28.1229 27.031C26.4564 27.1459 24.79 27.031 23.296 26.1116ZM34.1565 22.7213C34.6162 22.7213 35.0184 22.319 35.0184 21.8019C35.0184 21.3421 34.6162 20.9399 34.099 20.9974C33.6393 20.9974 33.2945 21.3996 33.2945 21.8593C33.2945 22.3765 33.6393 22.7213 34.1565 22.7213Z" stroke="white"/>
<path fill-rule="evenodd" clip-rule="evenodd" d="M23.0653 12.0905C21.8012 11.8607 20.537 11.6308 19.2153 11.6883C17.7787 11.7458 16.5146 12.2055 15.1929 12.7226C13.6414 13.2973 12.2048 14.1017 11.0556 15.3085C9.79141 16.6301 9.10185 18.2391 8.81454 20.0779C8.58469 21.6294 8.52722 23.1809 8.35483 24.7324C8.06752 28.0652 7.55035 31.3981 6.17124 34.4436C5.769 34.0988 5.53915 33.5817 5.3093 33.1794C3.98765 30.9384 3.12571 28.4675 2.78093 25.8816C2.60854 24.7324 2.49362 23.6406 2.55108 22.4913C2.72347 17.8943 4.16004 13.757 7.09065 10.1368C9.61902 6.97633 12.8369 4.79274 16.687 3.52856C19.0429 2.78154 21.5138 2.43677 23.9847 2.55169C29.5012 2.89647 34.2131 5.13752 37.9482 9.21739C40.7064 12.2629 42.3729 15.8256 43.005 19.848C43.6371 24.1003 43.005 28.1801 41.0512 32.0302C38.8676 36.3973 35.4773 39.5578 30.9952 41.5115C29.6736 42.0862 28.2945 42.5459 26.8004 42.7757C26.6855 42.7757 26.628 42.9481 26.5706 42.8332C26.2258 40.6496 26.743 38.5809 27.6049 36.5697C28.6967 34.1563 30.2482 32.0876 31.9721 30.0764C33.4087 28.41 35.0751 26.8585 36.684 25.307C37.6034 24.3876 38.4079 23.4682 38.8676 22.2615C39.6721 20.3077 39.2124 18.6988 37.4885 17.4346C36.1669 16.4577 34.6154 15.9405 33.0639 15.4808C31.5698 15.0211 30.0758 14.4465 28.6392 13.8719C28.3519 12.895 27.6624 12.2629 26.743 11.9181C25.5362 11.6308 24.3295 11.7458 23.0653 12.0905ZM41.8557 24.3301H41.9706C42.2005 23.5256 42.2005 22.6637 42.2005 21.8018C42.2005 20.8249 42.0856 19.848 41.9132 18.8711C41.2811 15.7107 39.8445 12.9525 37.6035 10.5965C36.2243 9.15992 34.6728 7.9532 33.1213 6.68902C31.7422 5.53976 30.2482 4.67782 28.5243 4.21811C26.8579 3.81587 25.2489 3.58602 23.525 3.87334C23.4101 3.87334 23.2952 3.87334 23.2952 3.98826C23.2952 4.10319 23.4101 4.10319 23.525 4.10319C26.0534 4.56289 28.4668 5.36737 30.8228 6.28678C33.1213 7.20619 35.0751 8.52783 36.5117 10.5965C37.4885 12.0331 38.4079 13.5271 39.1549 15.1361C40.1318 17.3197 40.8788 19.5607 41.3385 21.8592C41.5684 22.7786 41.7408 23.5256 41.8557 24.3301Z" fill="#DADEEF" stroke="white"/>
<path fill-rule="evenodd" clip-rule="evenodd" d="M20.0772 14.0443C22.2608 14.0443 23.9847 15.8257 23.9847 17.9518C23.9847 20.1354 22.2034 21.8593 20.0198 21.9167C17.8362 21.9167 16.1123 20.1354 16.1123 17.9518C16.1123 15.7682 17.8937 14.0443 20.0772 14.0443ZM22.8355 18.0092C22.8355 16.4577 21.6287 15.251 20.0772 15.251C18.5257 15.251 17.319 16.4577 17.319 18.0092C17.319 19.5033 18.5257 20.7675 20.0198 20.7675H20.0772C21.5713 20.7675 22.778 19.5607 22.8355 18.0092Z" fill="#FCFDFB" stroke="white"/>
<path fill-rule="evenodd" clip-rule="evenodd" d="M23.2953 26.1116C24.7893 27.031 26.4557 27.146 28.1222 27.0885C30.4207 26.9736 32.6043 26.4564 34.6729 25.537C35.4774 25.1922 36.2819 24.8474 37.0289 24.3877C37.0864 24.3303 37.1438 24.2728 37.2588 24.3303C37.2013 24.5027 37.0289 24.5601 36.8565 24.6751C34.6155 26.1691 32.1446 27.0885 29.5013 27.6057C28.0072 27.893 26.4557 27.893 25.0192 27.3758C24.2722 27.0885 23.5826 26.6288 23.2953 26.1116ZM23.0654 12.0907C24.2722 11.7459 25.5363 11.631 26.7431 12.0907C27.6625 12.4355 28.352 13.0675 28.6393 14.0444C26.9154 13.125 25.0192 12.5504 23.0654 12.0907Z" fill="#9F9F9F" stroke="white"/>
<path fill-rule="evenodd" clip-rule="evenodd" d="M34.1559 22.7212C33.6962 22.7212 33.2939 22.319 33.2939 21.8593C33.2939 21.3996 33.6387 20.9973 34.0984 20.9973C34.5581 20.9973 34.9604 21.3421 35.0178 21.8018C34.9604 22.319 34.6156 22.7212 34.1559 22.7212Z" fill="#FCFDFB" stroke="white"/>
<path fill-rule="evenodd" clip-rule="evenodd" d="M37.4889 24.1578C37.4889 24.2152 37.4315 24.2727 37.374 24.2727C37.374 24.1578 37.4315 24.1003 37.4889 24.1578ZM37.6613 24.0428L37.4889 24.1578L37.4315 24.1003C37.5464 24.0429 37.6039 24.0428 37.6613 24.0428Z" fill="#9F9F9F"/>
<path d="M37.4889 24.1578C37.4889 24.2152 37.4315 24.2727 37.374 24.2727C37.374 24.1578 37.4315 24.1003 37.4889 24.1578ZM37.4889 24.1578L37.6613 24.0428C37.6039 24.0428 37.5464 24.0429 37.4315 24.1003L37.4889 24.1578Z" stroke="white"/>
<path fill-rule="evenodd" clip-rule="evenodd" d="M37.6611 24.0428C37.7186 24.0428 37.7761 24.0428 37.6611 24.0428V24.0428Z" fill="#9F9F9F" stroke="white"/>
<path fill-rule="evenodd" clip-rule="evenodd" d="M41.8566 24.3302C41.6842 23.5257 41.5118 22.7787 41.3969 21.9743C40.9372 19.6183 40.1327 17.3772 39.2133 15.2511C38.5237 13.6421 37.6043 12.1481 36.57 10.7115C35.1334 8.64286 33.2371 7.32121 30.8812 6.40181C28.4677 5.4824 26.1117 4.62045 23.5834 4.21821C23.4684 4.21821 23.3535 4.21822 23.3535 4.10329C23.3535 3.98836 23.4684 3.98837 23.5834 3.98837C25.2498 3.70105 26.9162 3.87344 28.5826 4.33314C30.3065 4.79285 31.8006 5.71225 33.1797 6.80404C34.7312 8.06823 36.2827 9.27495 37.6618 10.7115C39.9028 13.0675 41.3394 15.8257 41.9715 18.9862C42.1439 19.9631 42.2588 20.9399 42.2588 21.9168C42.2588 22.7213 42.2588 23.5832 42.029 24.4452L41.8566 24.3302Z" fill="#FFFEFC" stroke="white"/>
<path fill-rule="evenodd" clip-rule="evenodd" d="M22.8358 18.0093C22.8358 19.5033 21.6291 20.7675 20.135 20.7675H20.0776C18.5835 20.7675 17.3193 19.5608 17.3193 18.0093V17.9518C17.3193 16.4003 18.5835 15.1936 20.0776 15.1936C21.5716 15.1936 22.8358 16.4578 22.8358 18.0093Z" fill="#9F9F9F" stroke="white"/>
<path fill-rule="evenodd" clip-rule="evenodd" d="M110.007 29.0996C109.949 29.1571 109.892 29.1571 109.835 29.2145C108.053 31.2257 105.812 31.5705 103.399 30.9384C100.411 30.1914 98.8017 28.0653 98.1696 25.1346C97.7673 23.2384 97.8823 21.3421 98.6293 19.5607C99.9509 16.4003 102.939 14.6764 106.329 15.1361C107.881 15.366 109.317 15.8831 110.409 17.0324C111.214 17.8943 111.673 18.9287 111.846 20.0779C111.903 20.3078 111.788 20.3652 111.616 20.3652C110.926 20.3652 110.179 20.3652 109.49 20.3652C109.317 20.3652 109.26 20.3078 109.202 20.1354C108.858 18.5839 107.823 17.7219 106.329 17.4346C104.605 17.0898 103.111 17.4346 101.962 18.8137C100.928 20.0779 100.64 21.6294 100.64 23.2384C100.64 24.4451 100.87 25.5944 101.388 26.6287C102.594 28.9272 105.582 29.7317 107.823 28.41C109.088 27.663 109.49 26.4563 109.605 25.0772C109.605 24.7899 109.432 24.8473 109.26 24.8473C108.111 24.8473 107.019 24.8473 105.87 24.8473C105.525 24.8473 105.467 24.7324 105.467 24.4451C105.467 23.9854 105.467 23.5831 105.467 23.1234C105.467 22.8361 105.582 22.7787 105.812 22.7787C107.766 22.7787 109.777 22.7787 111.731 22.7787C111.961 22.7787 112.076 22.8361 112.076 23.066C112.076 25.5944 112.076 28.0653 112.076 30.5936C112.076 30.8235 112.018 30.8809 111.788 30.8809C111.329 30.8809 110.754 30.9959 110.409 30.8235C110.064 30.5936 110.179 30.019 110.064 29.5593C110.064 29.3869 110.007 29.2145 110.007 29.0996ZM64.4963 20.3652C64.1515 20.3652 63.8068 20.3652 63.4045 20.3652C63.1747 20.3652 63.1172 20.3078 63.0597 20.0779C62.6 18.469 61.5657 17.4921 59.8993 17.3197C58.0605 17.1473 56.509 17.7219 55.5896 19.3884C54.2105 21.9167 54.2679 24.5026 55.647 26.9735C56.5664 28.6399 58.5776 29.3869 60.4165 28.8697C62.0254 28.41 62.7724 27.2033 63.1172 25.6518C63.2321 25.0197 63.2321 25.0197 63.8642 25.0197C64.4389 25.0197 65.0135 25.0197 65.5881 25.0197C65.818 25.0197 65.8754 25.0772 65.818 25.307C65.5306 28.3526 63.5769 30.7085 60.5888 31.1683C56.2791 31.8578 52.7164 29.2145 52.0269 24.9048C51.7396 23.0085 51.9119 21.1697 52.659 19.3884C53.9806 16.4003 56.9112 14.7913 60.1866 15.1936C61.7381 15.4234 63.1747 15.9406 64.3239 17.0898C65.1284 17.9518 65.5881 18.9861 65.7605 20.1354C65.818 20.3652 65.7605 20.4227 65.5306 20.4227C65.2433 20.3078 64.8411 20.3652 64.4963 20.3652ZM149.082 30.8235C148.105 30.8235 147.243 30.8235 146.323 30.8235C146.094 30.8235 145.979 30.7086 145.921 30.5362C144.944 28.9272 143.91 27.3757 142.933 25.7667C142.761 25.4794 142.703 25.4794 142.416 25.7093C141.439 26.3988 141.037 27.3182 141.209 28.525C141.324 29.1571 141.209 29.8466 141.209 30.5362C141.209 30.8235 141.094 30.8809 140.865 30.8809C140.29 30.8809 139.715 30.8809 139.141 30.8809C138.853 30.8809 138.796 30.766 138.796 30.4787C138.796 28.1227 138.796 25.7667 138.796 23.3533C138.796 20.8824 138.796 18.4115 138.796 15.8831C138.796 15.4809 138.911 15.366 139.313 15.4234C139.83 15.4809 140.347 15.4809 140.865 15.4234C141.209 15.4234 141.267 15.5383 141.267 15.8257C141.267 18.4115 141.267 20.9973 141.267 23.5832V24.0429L141.382 24.1003C141.554 23.8705 141.784 23.6406 141.956 23.4108C143.106 22.204 144.255 21.0548 145.462 19.8481C145.576 19.7331 145.691 19.6182 145.864 19.6182C146.783 19.6182 147.703 19.6182 148.622 19.6182C148.622 19.7906 148.45 19.8481 148.392 19.963C147.185 21.1122 146.036 22.2615 144.772 23.4108C144.485 23.6406 144.485 23.813 144.715 24.1578C146.094 26.2264 147.473 28.2951 148.852 30.3638C148.852 30.5362 148.967 30.6511 149.082 30.8235ZM120.695 25.8817C119.431 25.8817 118.224 25.8817 116.96 25.8817C116.673 25.8817 116.615 25.9391 116.615 26.2264C116.73 28.4675 118.799 29.8466 120.867 28.9847C121.442 28.7548 121.902 28.2951 122.132 27.663C122.247 27.3757 122.419 27.3182 122.649 27.3182C123.166 27.3182 123.741 27.3182 124.258 27.3182C124.545 27.3182 124.603 27.3757 124.488 27.663C123.855 29.6742 122.476 30.766 120.408 31.0533C118.569 31.3406 116.845 30.9384 115.523 29.5593C114.604 28.5824 114.202 27.3182 114.087 25.9966C113.972 24.3876 114.202 22.8361 115.236 21.457C116.558 19.7331 118.339 19.101 120.408 19.4458C122.591 19.8481 123.913 21.2272 124.545 23.2958C124.775 24.0429 124.832 24.7899 124.775 25.5944C124.775 25.8817 124.66 25.9391 124.43 25.9391C123.223 25.8817 121.959 25.8817 120.695 25.8817ZM119.488 24.2727C120.35 24.2727 121.212 24.2727 122.017 24.2727C122.304 24.2727 122.361 24.2152 122.304 23.9279C122.074 22.4339 120.982 21.3421 119.546 21.2846C118.052 21.2272 116.845 22.2615 116.615 23.813C116.558 24.1003 116.615 24.2152 116.96 24.2152C117.822 24.2727 118.626 24.2727 119.488 24.2727ZM67.4844 25.2496C67.4844 24.56 67.5993 23.813 67.7717 23.1234C68.5187 20.71 70.6448 19.216 73.2881 19.3884C75.2993 19.5033 76.9658 20.1928 77.9426 21.9742C79.0919 24.1578 79.0919 26.4563 77.8852 28.5824C76.7934 30.5936 74.8971 31.2257 72.7135 31.1108C69.4381 30.9384 67.4844 28.6974 67.4844 25.2496ZM69.9553 25.2496C69.9553 26.2264 70.1277 27.0884 70.7023 27.8929C71.6217 29.2145 73.4031 29.6168 74.7247 28.6974C75.012 28.4675 75.2993 28.2376 75.5292 27.9503C76.5061 26.5138 76.5635 24.1003 75.5292 22.6063C74.3225 20.8824 71.7941 20.8824 70.6448 22.6637C70.1277 23.4108 69.9553 24.3302 69.9553 25.2496ZM149.714 25.307C149.714 23.6981 150.059 22.2615 151.15 21.0548C152.242 19.7906 153.736 19.3309 155.345 19.3309C156.954 19.3309 158.448 19.7906 159.597 21.0548C160.804 22.4339 161.091 24.1003 160.977 25.8817C160.919 26.5138 160.804 27.1458 160.574 27.7205C159.712 29.9615 157.644 31.2257 155 31.0533C151.897 30.8809 149.944 28.8697 149.771 25.7667C149.771 25.6518 149.714 25.422 149.714 25.307ZM158.506 25.422C158.506 24.2727 158.218 23.2958 157.816 22.6063C156.954 21.2272 155.115 20.8824 153.794 21.7443C153.449 21.9742 153.162 22.2615 152.932 22.6063C151.955 24.0429 152.012 26.4563 152.932 27.8354C153.851 29.1571 155.632 29.5593 156.954 28.6399C157.299 28.41 157.529 28.1802 157.759 27.8354C158.333 27.0884 158.506 26.169 158.506 25.422ZM88.286 21.2272C88.9755 20.3652 89.78 19.7331 90.8718 19.4458C91.8487 19.216 92.8255 19.2734 93.7449 19.6757C95.124 20.2503 95.6987 21.457 95.7561 22.8936C95.8136 25.422 95.7561 27.9503 95.7561 30.4787C95.7561 30.766 95.6987 30.8235 95.4114 30.8235C94.8367 30.8235 94.2621 30.8235 93.6875 30.8235C93.4002 30.8235 93.2852 30.766 93.2852 30.4212C93.2852 28.2951 93.2852 26.1115 93.2852 23.9854C93.2852 23.5257 93.2278 23.066 93.1128 22.6637C92.7681 21.5145 91.6763 21.0548 90.3546 21.3996C89.2054 21.7443 88.4583 22.7787 88.4583 24.1003C88.4583 26.169 88.4583 28.2951 88.4583 30.3638C88.4583 30.7085 88.4009 30.8809 87.9986 30.8235C87.4815 30.766 86.9068 30.766 86.3897 30.8235C86.1024 30.8235 85.9874 30.766 85.9874 30.4212C85.9874 28.8123 85.9874 27.2608 85.9874 25.6518C85.9874 23.813 85.9874 21.9742 85.9874 20.1354C85.9874 19.7331 86.1024 19.6182 86.5046 19.6757C87.0218 19.7331 87.4815 19.6757 87.9986 19.6757C88.286 19.6757 88.4009 19.7331 88.3434 20.0204C88.286 20.4227 88.286 20.8249 88.286 21.2272ZM135.406 23.4108C135.348 23.4108 135.291 23.4108 135.233 23.4108C134.601 23.4682 134.199 23.4108 133.911 22.6637C133.222 20.9399 130.464 20.8824 129.314 22.4914C128.912 23.0085 128.74 23.6406 128.625 24.3302C128.51 25.422 128.51 26.5138 128.97 27.5481C129.544 28.8123 130.579 29.3869 131.9 29.2145C132.992 29.0421 133.739 28.3526 134.026 27.1458C134.084 26.8011 134.256 26.6861 134.601 26.7436C135.176 26.7436 135.693 26.7436 136.267 26.7436C136.555 26.7436 136.612 26.8585 136.555 27.0884C135.98 29.8466 134.026 31.3981 131.153 31.2257C128.28 31.0533 126.384 29.1571 126.154 26.2264C126.039 24.9623 126.154 23.6981 126.671 22.4914C127.533 20.4802 129.487 19.3309 131.785 19.4458C133.164 19.5033 134.429 19.8481 135.463 20.8249C136.095 21.457 136.44 22.2615 136.612 23.1234C136.67 23.4108 136.555 23.5257 136.267 23.4682C136.038 23.4108 135.75 23.4108 135.406 23.4108ZM83.2867 25.307C83.2867 26.9735 83.2867 28.6399 83.2867 30.3063C83.2867 30.766 83.1718 30.8809 82.7695 30.8235C82.2523 30.766 81.7927 30.766 81.2755 30.8235C80.9307 30.8235 80.8158 30.766 80.8158 30.3638C80.8158 27.3757 80.8158 24.3876 80.8158 21.3996C80.8158 20.9399 80.8158 20.4802 80.8158 20.0204C80.8158 19.7331 80.8732 19.6757 81.1606 19.6757C81.7352 19.6757 82.3098 19.6757 82.8844 19.6757C83.2292 19.6757 83.3441 19.7331 83.3441 20.1354C83.2867 21.8593 83.2867 23.5832 83.2867 25.307ZM82.1374 15.4234C82.4822 15.4809 82.9994 15.251 83.2292 15.4809C83.4591 15.7107 83.2867 16.2279 83.2867 16.6301C83.2867 16.9749 83.4591 17.4346 83.2292 17.6645C82.9994 17.8943 82.5397 17.7219 82.1949 17.7219C81.7352 17.7219 81.1606 17.8943 80.8732 17.6645C80.6434 17.3772 80.8158 16.8025 80.8158 16.4003C80.8158 15.4234 80.8158 15.4234 81.7926 15.4234H82.1374Z" fill="#9F9F9F" stroke="white"/>
</g>
</svg>
