<svg width="160" height="27" viewBox="0 0 160 27" fill="none" xmlns="http://www.w3.org/2000/svg">
<g clip-path="url(#clip0_2038_1690)">
<path d="M27.7459 5.35631V8.40205H26.793C23.8253 8.40205 21.9172 10.5038 21.9172 13.6569V20.8022H18.6318V5.56636H21.9172V9.45469C22.4481 7.14294 23.932 5.25128 26.793 5.25128C27.1107 5.25128 27.4283 5.25128 27.7459 5.35631ZM45.7714 5.558L39.3477 20.7927L36.9252 26.2564H33.7655L36.2935 20.5826L29.9741 5.55681H33.2392L37.7678 16.7993L42.4019 5.45298H45.7714V5.558ZM64.6075 13.1282C64.6075 18.3795 60.8173 21.0051 57.2381 21.0051C54.5015 21.0051 52.5021 19.5348 51.9758 18.2745H51.8692V26.2564H48.6075V5.56636H51.8703V7.98195H51.9758C52.5021 6.82667 54.5015 5.25128 57.2381 5.25128C60.9228 5.25128 64.6075 7.87692 64.6075 13.1282ZM61.449 13.1282C61.449 9.87241 59.0277 8.192 56.6075 8.192C54.1862 8.192 51.7649 9.87241 51.7649 13.1282C51.7649 16.384 54.1862 18.0644 56.6075 18.0644C59.1332 18.0644 61.449 16.384 61.449 13.1282ZM72.0932 8.11562V16.3995C72.0932 17.2385 72.5139 17.9725 73.7738 17.9725C74.089 17.9725 74.6141 17.8675 75.1391 17.6574V20.1745C74.6141 20.5934 73.5628 20.8034 72.7237 20.8034C70.4126 20.8034 68.7332 19.6505 68.7332 16.9246V8.11562H66.6306V5.49594H68.732V1.61596H71.9865V5.49475H75.0324V8.11681H72.092L72.0932 8.11562ZM77.7714 13.1282C77.7714 7.98195 81.7477 5.25128 85.6173 5.25128C89.5936 5.25128 93.5699 7.98195 93.5699 13.1282C93.5699 18.2745 89.5936 21.0051 85.6173 21.0051C81.7477 21.0051 77.7714 18.2745 77.7714 13.1282ZM90.326 13.1282C90.326 9.97744 88.1287 8.192 85.6185 8.192C83.1071 8.192 80.9109 9.97744 80.9109 13.1282C80.9109 16.279 83.2114 18.0644 85.6185 18.0644C88.0244 18.0644 90.326 16.279 90.326 13.1282ZM105.924 5.35631V8.40205H104.97C102.002 8.40205 100.094 10.5038 100.094 13.6569V20.8022H96.8102V5.56636H100.096V9.45469C100.625 7.14294 102.108 5.25128 104.97 5.25128C105.288 5.25128 105.605 5.25128 105.924 5.35631ZM141.569 11.8679V20.8022H138.312V12.3942C138.312 9.76619 136.841 8.29464 134.634 8.29464C132.427 8.29464 130.851 9.76619 130.851 12.3942V20.8022H127.594V5.66661H130.851V7.97956C131.693 6.61304 133.268 5.45656 135.684 5.45656C138.942 5.35153 141.569 7.34822 141.569 11.8679ZM150.81 14.6045L148.695 16.9163V20.8034H145.417V0H148.695V12.7129L155.145 5.56875H159.057L152.818 12.3978L159.797 20.8034H156.097L150.81 14.6045ZM124.354 13.0077V5.16416H121.091V7.59526H120.986C120.459 6.3266 118.459 4.84789 115.723 4.84789C112.144 4.84789 108.354 7.48904 108.354 12.7725C108.354 18.0561 112.143 20.6972 115.722 20.8034C116.103 20.8034 116.469 20.7724 116.818 20.7163C117.477 20.3093 118.205 19.6589 119.074 18.6719C118.556 18.5931 118.138 18.537 117.782 18.4881C116.532 18.3186 116.017 18.2482 114.513 17.7088C113.748 17.4343 112.394 16.2145 111.989 15.0688C111.687 14.4184 111.511 13.6533 111.511 12.7725C111.511 9.49647 113.933 7.80651 116.354 7.80651C118.775 7.80651 121.197 9.49647 121.197 12.7714L121.195 12.8764C122.383 12.917 123.493 12.9659 124.354 13.0077Z" fill="#9F9F9F" stroke="white"/>
<path d="M119.331 22.0137L118.694 21.3907L121.458 18.376L118.48 15.5689L119.119 14.9459L122.734 18.376L119.331 22.0137Z" fill="#9F9F9F" stroke="#9F9F9F" stroke-width="1.196" stroke-miterlimit="10"/>
<path d="M6.5683 17.938C5.82637 17.6539 5.05956 17.2278 4.512 16.5953C3.69517 15.6283 3.24873 14.399 3.25333 13.1295C3.25333 9.97869 5.45778 8.19206 7.97511 8.19206C9.23496 8.19206 10.4936 8.61216 11.3339 9.55739C11.5828 9.80802 11.7843 10.067 11.9455 10.3308L12.5357 10.1064C13.3535 9.79609 14.1701 9.48459 14.9879 9.16713C13.5656 6.59281 10.771 5.25134 7.97511 5.25134C3.98815 5.25134 0 7.98201 0 13.1283C0 18.1922 3.85896 20.9181 7.78074 21.0052C8.46815 20.4204 9.25037 19.6267 9.83348 19.0336L10.2376 18.623C8.88652 18.623 7.53541 18.3951 6.5683 17.938Z" fill="#9F9F9F" stroke="white"/>
<path d="M10.3705 22.4182L9.73168 21.7952L12.4967 18.7805L9.51953 15.9734L10.1572 15.3492L13.772 18.7805L10.3705 22.4182Z" fill="#9F9F9F" stroke="#9F9F9F" stroke-width="1.196" stroke-miterlimit="10"/>
</g>
<defs>
<clipPath id="clip0_2038_1690">
<rect width="160" height="26.2564" fill="white"/>
</clipPath>
</defs>
</svg>
