<svg width="144" height="27" viewBox="0 0 144 27" fill="none" xmlns="http://www.w3.org/2000/svg">
<path d="M91.4758 7.00317L91.0476 9.6188H80.0871C79.3165 9.6188 78.6315 10.2094 78.4602 10.9688L78.2033 12.3188H87.8794L87.4512 14.9344H77.7752L76.5764 21.6844H73.9219L75.8913 10.9688C76.3195 8.69067 78.2889 7.08755 80.6009 7.00317H91.4758ZM89.8488 21.7688L92.5033 7.08755H95.1578L92.5033 21.7688H89.8488ZM111.085 7.08755L108.43 21.7688L106.118 19.7438L97.8123 12.4875L96.1853 21.7688H93.5309L96.1853 7.08755L98.4973 9.11255L106.803 16.3688L108.516 7.00317L111.085 7.08755ZM114.082 10.9688L113.825 12.3188H123.415L122.987 14.9344H113.397L112.883 17.7188C112.712 18.3094 113.14 18.9 113.739 19.0688H124.871L124.443 21.6844H113.568C111.77 21.7688 110.228 20.3344 110.228 18.5625C110.228 18.3094 110.228 17.9719 110.314 17.7188L111.513 10.9688C111.941 8.69067 113.911 7.08755 116.222 7.00317H127.097L126.669 9.6188H115.794C114.938 9.70317 114.253 10.2094 114.082 10.9688ZM142.511 7.08755L135.403 14.4282L139.856 21.7688H136.516L133.348 16.6219L128.382 21.7688H125.042L132.064 14.4282L127.611 7.08755H130.951L134.119 12.3188L139.171 7.08755H142.511Z" fill="#9F9F9F"/>
<path d="M44.4652 7.0874C48.5753 7.0874 51.3155 10.378 50.5448 14.428C50.2023 16.1999 49.2604 17.8874 47.9759 19.153C47.8047 19.3218 47.6334 19.4062 47.4622 19.5749C45.9208 20.9249 43.9514 21.6843 41.8963 21.7687H34.5322L37.1011 7.0874H44.4652ZM37.5292 19.153H42.3244C45.0646 19.0687 47.3765 17.128 47.8903 14.428C48.4041 12.3187 47.034 10.2937 44.9789 9.7874C44.6364 9.70303 44.2939 9.70303 43.9514 9.70303H39.1562L37.5292 19.153ZM50.2879 21.7687L52.8568 7.0874H55.5113L52.9424 21.7687H50.2879ZM57.9945 14.428C57.4807 16.5374 58.8508 18.5624 60.9059 19.0687C61.2484 19.153 61.5909 19.153 61.9334 19.153H66.7286L67.2424 16.3687H62.4472L62.8753 13.753H70.2394L68.7837 21.853H61.4196C57.3095 21.853 54.5694 18.5624 55.34 14.5124C56.1963 10.378 59.7927 7.34053 64.0741 7.17178H71.4382L71.0101 9.7874H63.646C60.8202 9.7874 58.5083 11.728 57.9945 14.428Z" fill="#9F9F9F"/>
<path d="M70.2402 21.7688L72.8091 7.00317H75.4636L72.8947 21.7688H70.2402Z" fill="#9F9F9F"/>
<path d="M29.8226 10.6313C29.8226 11.8125 29.6514 12.9938 29.4801 14.175C27.9388 22.275 23.2292 26.3251 15.437 26.3251H10.4705V26.2407L11.6693 20.6719H15.0945C19.2903 20.6719 21.8592 18.3094 22.7154 13.5C22.8011 13.1625 22.8011 12.9094 22.8867 12.5719L29.6514 8.69067C29.737 9.2813 29.8226 9.9563 29.8226 10.6313ZM27.3394 3.62817L21.2598 7.08755C20.2322 6.49692 19.0334 6.15942 17.8346 6.2438H7.9873V6.07505L9.18611 0.675049H19.3759C20.6604 0.675049 21.9448 0.843799 23.2292 1.1813C24.6849 1.60317 25.9693 2.27817 27.0825 3.29067C27.1681 3.37505 27.2538 3.45942 27.3394 3.62817Z" fill="#9F9F9F"/>
<path d="M17.6634 11.0532L16.8071 16.622H12.5257L10.4706 26.1563V26.2407H1.22266L4.73343 21.6001L7.04541 11.0532H17.6634Z" fill="#9F9F9F"/>
</svg>
