<svg width="140" height="33" viewBox="0 0 140 33" fill="none" xmlns="http://www.w3.org/2000/svg">
<g clip-path="url(#clip0_2038_1687)">
<path d="M32.2261 18.5397C32.2261 16.2262 32.2273 13.9139 32.2261 11.6004C32.2249 10.0327 32.852 9.4056 34.4197 9.41747C36.3175 9.43182 38.2201 9.36048 40.112 9.47574C44.3661 9.73586 46.9089 12.0469 47.644 16.2476C48.062 18.6359 47.891 20.9911 46.8483 23.2059C45.9279 25.1608 44.4219 26.5372 42.302 27.0646C41.144 27.352 39.9315 27.4743 38.7355 27.5396C37.2772 27.6192 35.8104 27.5729 34.3473 27.5599C32.852 27.5467 32.2249 26.9055 32.2237 25.4209C32.2213 23.1276 32.2237 20.8342 32.2237 18.5409H32.2273L32.2261 18.5397ZM36.0147 18.4186H36.0171C36.0171 20.2368 36.023 22.0564 36.0123 23.8746C36.0099 24.2725 36.1465 24.4411 36.5633 24.4245C37.5312 24.3889 38.5015 24.415 39.4671 24.3616C41.4516 24.251 42.9908 23.1121 43.5693 21.2238C44.1179 19.4329 44.1845 17.5967 43.5823 15.7963C43.0205 14.117 41.9054 12.9614 40.1037 12.7037C38.9778 12.5422 37.8246 12.5742 36.6845 12.5089C36.1833 12.4805 35.9945 12.674 36.0028 13.199C36.0313 14.9376 36.0135 16.6788 36.0135 18.4174L36.0147 18.4186ZM77.4109 25.4921V26.0527C77.4037 27.5551 77.4085 29.0574 77.3859 30.5598C77.368 31.7557 76.7612 32.3424 75.5795 32.3484C74.5023 32.3543 73.7374 31.6453 73.735 30.5456C73.7244 25.5825 73.7255 20.6205 73.7506 15.6574C73.7565 14.4068 74.5581 13.7121 75.7695 13.7892C76.7814 13.8545 77.4346 14.7168 77.3657 15.8889C77.3597 15.9947 77.3907 16.1027 77.418 16.3154C77.5711 16.1455 77.6744 16.0647 77.7363 15.9602C79.399 13.1301 83.811 13.2001 85.7029 15.7465C87.2337 17.8082 87.4167 20.1478 87.0461 22.5861C86.8216 24.0646 86.3098 25.4043 85.1863 26.4636C83.3906 28.1585 80.2041 28.2119 78.4061 26.5326C78.0724 26.2214 77.8229 25.8187 77.5355 25.4589L77.4097 25.491L77.4109 25.4921ZM83.5687 20.6372C83.3277 19.877 83.1768 18.9353 82.7493 18.1443C81.7778 16.351 79.2505 16.2654 78.1852 17.9852C77.1306 19.6847 77.1104 21.5219 77.9666 23.3117C78.5046 24.4352 79.4904 24.9305 80.7469 24.8057C81.944 24.687 82.6958 23.9685 83.0747 22.8901C83.3075 22.2286 83.3835 21.5124 83.5699 20.6372H83.5687ZM130.215 25.3342C130.174 26.2261 130.196 26.9732 129.499 27.4707C128.894 27.9031 128.241 27.9292 127.585 27.6703C126.93 27.4114 126.621 26.8674 126.618 26.1738C126.611 23.7036 126.621 21.2333 126.618 18.763C126.616 16.2725 126.604 13.7821 126.601 11.2916C126.601 10.6966 126.601 10.1028 127.09 9.64325C127.662 9.10403 128.316 8.93296 129.053 9.2097C129.79 9.48643 130.205 10.0267 130.21 10.8308C130.223 12.4899 130.224 14.1491 130.231 15.8082C130.231 15.9376 130.249 16.0671 130.264 16.2844C130.398 16.1692 130.486 16.1253 130.525 16.0541C132.175 13.0636 136.985 13.1004 138.864 16.1965C139.444 17.1514 139.756 18.1799 139.859 19.2665C140.086 21.6645 140.018 24.0005 138.422 26.0325C136.726 28.1928 132.319 28.5729 130.56 25.7249C130.494 25.6193 130.393 25.5349 130.213 25.333L130.215 25.3342ZM136.31 21.0172C136.232 20.3794 136.225 19.877 136.101 19.4044C135.836 18.3878 135.413 17.4543 134.358 17.0066C132.734 16.3176 131.019 17.2262 130.481 19.0338C130.125 20.2238 130.151 21.4126 130.483 22.5967C130.846 23.8912 131.865 24.7677 133.03 24.8176C134.443 24.8793 135.468 24.1964 135.939 22.7867C136.142 22.1775 136.207 21.5231 136.31 21.016V21.0172ZM120.475 25.5622C120.114 25.9791 119.881 26.3283 119.574 26.5908C117.941 27.9886 115.331 28.1406 113.533 26.9708C112.288 26.1608 111.782 24.9708 111.812 23.5337C111.843 22.0421 112.609 20.9994 113.914 20.345C115.237 19.6811 116.678 19.5813 118.125 19.5219C118.757 19.4958 119.389 19.4625 120.021 19.4352C120.354 19.421 120.482 19.2784 120.504 18.9198C120.567 17.9625 120.298 17.1941 119.407 16.7464C118.572 16.3259 117.001 16.5148 116.37 17.1051C116.011 17.4424 115.693 17.8248 115.348 18.1775C114.656 18.883 113.242 18.7429 112.788 17.8818C112.632 17.5837 112.586 17.1573 112.656 16.8236C112.854 15.8557 113.477 15.1324 114.335 14.7072C116.859 13.4543 119.438 13.3616 121.969 14.6656C123.22 15.3105 123.985 16.4092 124.011 17.8557C124.058 20.5836 124.06 23.3129 124.039 26.042C124.028 27.3698 123.181 28.0088 121.871 27.7724C121.168 27.6454 120.63 27.0729 120.551 26.3651C120.527 26.1525 120.511 25.9388 120.477 25.5646L120.475 25.5622ZM120.499 22.4554C120.369 22.2226 120.754 21.649 120.155 21.668C119.012 21.7048 117.864 21.7927 116.736 21.9697C115.927 22.0967 115.386 22.8354 115.424 23.5088C115.465 24.2641 116.076 24.9518 116.895 25.0587C117.377 25.1216 117.889 25.1216 118.366 25.0338C119.658 24.7962 120.509 23.7487 120.499 22.4554ZM58.449 20.9577C58.4811 18.6894 58.9645 16.6775 60.7542 15.2524C62.9739 13.484 65.4905 13.3331 68.0285 14.3402C70.456 15.3034 71.6009 17.3212 71.7588 19.8568C71.8266 20.947 71.7469 22.0789 71.5214 23.1466C71.0641 25.2998 69.7173 26.7511 67.6164 27.4506C65.8052 28.0527 63.9941 28.0171 62.2246 27.2891C59.8908 26.3283 58.8611 24.4233 58.5226 22.0469C58.4668 21.6573 58.4692 21.2594 58.4514 20.9589L58.449 20.9577ZM62.0678 20.8129C62.2173 21.5634 62.2934 22.339 62.5321 23.0599C62.9692 24.3853 63.9241 25.067 65.1579 25.0741C66.3278 25.0812 67.2898 24.3746 67.7565 23.0931C68.1413 22.0338 68.2364 20.9174 68.0166 19.8188C67.8682 19.0778 67.6686 18.2939 67.272 17.668C66.4228 16.3271 64.4667 16.1811 63.348 17.2974C62.3837 18.2594 62.1675 19.4946 62.0689 20.8129H62.0678ZM94.4784 13.7774C96.0758 13.7785 97.5816 14.0873 98.8643 15.1194C99.4203 15.5671 99.8102 16.1277 99.9358 16.8426C100.107 17.8105 99.2136 18.6561 98.2646 18.3605C97.8394 18.2286 97.4012 17.9435 97.1114 17.6062C96.1755 16.5172 95.052 16.1324 93.6648 16.4721C92.9321 16.6514 92.4428 17.1324 92.4167 17.7156C92.3894 18.3415 92.7492 18.8473 93.5283 19.054C94.8252 19.3984 96.147 19.6442 97.4463 19.9815C98.8168 20.3367 100.012 20.9506 100.444 22.4542C100.854 23.8758 100.3 25.5325 99.1492 26.4577C97.8999 27.4624 96.4202 27.8009 94.8822 27.8472C93.1851 27.8984 91.5069 27.6667 90.0711 26.6656C89.5901 26.3295 89.1934 25.8152 88.8834 25.3057C88.4702 24.6264 88.6091 23.8793 89.0901 23.4542C89.5521 23.0457 90.5426 22.972 91.0984 23.3521C91.3882 23.5492 91.666 23.795 91.8727 24.0753C92.8596 25.4138 94.6422 25.4292 95.9879 25.0611C96.5389 24.9102 96.8726 24.4838 96.9023 23.8746C96.9308 23.2748 96.6149 22.8663 96.0865 22.7119C95.1233 22.4293 94.1364 22.2321 93.1625 21.9875C92.5698 21.839 91.9618 21.7203 91.3977 21.4969C89.9345 20.9174 88.9107 19.9245 88.8466 18.2606C88.7778 16.4851 89.6874 15.0576 91.368 14.4139C92.3478 14.0386 93.4119 13.8842 94.438 13.6312L94.4808 13.7809L94.4784 13.7774ZM104.544 19.529C104.544 17.3937 104.524 15.2583 104.559 13.1242C104.568 12.5707 104.371 12.4603 103.879 12.4745C102.792 12.5066 101.704 12.5101 100.618 12.4911C99.6301 12.4733 99.0711 11.8831 99.077 10.927C99.082 10.0803 99.6845 9.44488 100.594 9.44131C104.508 9.42825 108.421 9.42944 112.336 9.45081C113.26 9.45556 113.88 10.1337 113.859 10.9875C113.841 11.6526 113.286 12.5529 112.296 12.5078C111.231 12.4591 110.162 12.4983 109.095 12.4994C108.344 12.5006 108.33 12.5125 108.33 13.2583C108.33 17.3308 108.332 21.4031 108.332 25.4755C108.332 25.7321 108.341 25.9922 108.308 26.2452C108.173 27.2986 107.414 27.8591 106.228 27.7973C105.307 27.7487 104.564 27.0017 104.558 26.0539C104.542 23.8793 104.553 21.7048 104.553 19.5302H104.546L104.544 19.529ZM53.4895 16.0766C53.9776 15.4911 54.4479 14.8723 54.9824 14.3153C55.1842 14.1051 55.5251 13.9946 55.822 13.9127C56.6071 13.6953 57.4324 13.9068 57.7543 14.4424C58.1735 15.1384 58.1842 15.9067 57.7471 16.5742C57.5488 16.8782 57.1118 17.0766 56.7424 17.2025C56.3588 17.3342 55.9254 17.3164 55.5144 17.3712C54.4705 17.5101 53.7816 18.1193 53.7282 19.1739C53.6427 20.8283 53.6688 22.4886 53.651 24.1466C53.6439 24.7594 53.6605 25.3722 53.6392 25.9839C53.6 27.1216 52.8897 27.833 51.828 27.8223C50.7176 27.8104 49.9872 27.0895 49.9835 25.9494C49.974 22.5124 49.9728 19.0754 49.9823 15.6383C49.9847 14.5932 50.6189 13.8688 51.5346 13.8023C52.6748 13.7191 53.4123 14.3663 53.4871 15.5255C53.5013 15.7346 53.4895 15.9459 53.4895 16.0766Z" fill="#9F9F9F" stroke="white" stroke-width="0.92788"/>
<path d="M10.8015 31.18C10.4445 31.18 10.087 31.1792 9.72993 31.18C9.28935 31.1807 8.86678 31.0828 8.44906 30.9536C8.41373 30.9427 8.37564 30.9393 8.33913 30.9329C8.08041 30.8873 7.81633 30.8613 7.56404 30.7924C7.17006 30.6843 6.77687 30.5657 6.39694 30.417C6.07677 30.2915 5.78411 30.0976 5.46513 29.9692C5.06175 29.8068 4.69715 29.5842 4.34997 29.3311C4.06038 29.1199 3.7688 28.9074 3.50255 28.6683C3.07058 28.2803 2.62654 27.8974 2.25334 27.4567C2.09137 27.2653 1.86876 27.0902 1.7991 26.8081C1.76556 26.6722 1.61686 26.5679 1.53543 26.4395C1.41799 26.2546 1.314 26.0605 1.20477 25.8704C1.15134 25.7766 1.0903 25.6858 1.04845 25.5871C0.931005 25.3115 0.822171 25.0323 0.709578 24.7548C0.684348 24.6931 0.655359 24.6327 0.632009 24.5706C0.576602 24.4242 0.516249 24.2787 0.471528 24.1292C0.398115 23.8848 0.335585 23.637 0.268503 23.3906C0.262072 23.3666 0.252376 23.3425 0.250793 23.318C0.220715 22.7539 0.0516271 22.2058 0.0741854 21.6338C0.0847719 21.3659 -0.0380125 21.0828 0.0120511 20.8289C0.115938 20.3016 0.0568709 19.771 0.119797 19.2475C0.161154 18.9051 0.259104 18.5696 0.331429 18.2306C0.339344 18.1941 0.345775 18.1568 0.351415 18.1199C0.395048 17.8412 0.415033 17.5564 0.488447 17.286C0.569083 16.9881 0.703147 16.7053 0.805253 16.413C0.865111 16.2409 0.897465 16.0594 0.961578 15.8892C1.04251 15.6733 1.14115 15.4644 1.23564 15.2542C1.30233 15.1058 1.37465 14.9605 1.44361 14.8131C1.54077 14.6064 1.63378 14.397 1.73588 14.1925C1.79198 14.0806 1.86619 13.9778 1.92644 13.8679C2.02202 13.6927 2.10978 13.5131 2.20743 13.3394C2.31775 13.1424 2.43598 12.95 2.54976 12.7549C2.7892 12.3444 3.03101 11.935 3.26638 11.5219C3.36018 11.3577 3.43478 11.1821 3.52699 11.0168C3.67768 10.7464 3.83925 10.4824 3.98874 10.2112C4.13043 9.954 4.25885 9.68963 4.39934 9.43199C4.48245 9.27943 4.57852 9.13369 4.66935 8.98577C4.73109 8.88486 4.80045 8.78789 4.85575 8.68371C5.07609 8.26866 5.27081 7.83777 5.51707 7.43895C5.72534 7.10186 5.96299 6.7711 6.24398 6.49476C6.39763 6.34338 6.59838 6.20922 6.84356 6.13917C7.18025 6.04281 7.51358 6.0337 7.84127 6.07071C8.19221 6.11028 8.53681 6.17657 8.82641 6.46053C9.21515 6.84165 9.4999 7.2845 9.78682 7.73488C10.0113 8.0875 10.2584 8.42567 10.484 8.77741C10.6659 9.06107 10.8252 9.35927 11.0049 9.64442C11.1871 9.93362 11.3856 10.2127 11.5697 10.5008C11.7535 10.7875 11.9241 11.0823 12.1083 11.3685C12.2929 11.6552 12.4955 11.9301 12.674 12.2201C12.8703 12.5387 13.0416 12.8724 13.236 13.1918C13.3572 13.3914 13.5068 13.5737 13.634 13.7703C13.7447 13.9417 13.8355 14.1262 13.9463 14.2976C14.0799 14.504 14.2332 14.6976 14.3639 14.9058C14.4844 15.0979 14.5842 15.3024 14.6957 15.5001C14.7865 15.6606 14.8878 15.8157 14.9714 15.9799C15.0501 16.1351 15.1115 16.2993 15.1808 16.459C15.2286 16.5693 15.2701 16.6835 15.3266 16.7893C15.4791 17.0751 15.6309 17.3565 15.6783 17.6875C15.7073 17.8894 15.7936 18.0833 15.8546 18.2807C15.8636 18.3101 15.8798 18.338 15.8851 18.3681C16.0342 19.1786 16.0764 19.997 16 20.8149C15.9653 21.1867 15.8742 21.5596 15.7567 21.9148C15.6328 22.289 15.4614 22.6503 15.2832 23.0032C15.1571 23.2532 14.9865 23.4811 14.8325 23.7168C14.692 23.9315 14.5665 24.1609 14.3986 24.3522C14.1896 24.5902 13.9609 24.8192 13.7094 25.0102C13.3866 25.255 12.9968 25.3861 12.5945 25.3796C12.2345 25.374 11.8594 25.3216 11.5423 25.1355C11.3378 25.0154 11.166 24.8282 11.0049 24.6486C10.8534 24.4795 10.731 24.2833 10.6038 24.0942C10.5623 24.0325 10.5502 23.9511 10.5152 23.8841C10.3936 23.652 10.3804 23.4012 10.3857 23.1489C10.3955 22.7003 10.5612 22.3086 10.8358 21.9596C11.0764 21.6534 11.3551 21.369 11.5494 21.0361C11.7573 20.6802 11.9027 20.2764 11.8447 19.8486C11.8104 19.5943 11.7212 19.3469 11.6526 19.0979C11.6059 18.9288 11.5634 18.7568 11.4982 18.5944C11.4093 18.3722 11.3118 18.1527 11.1988 17.9417C11.015 17.5983 10.8165 17.2619 10.6222 16.9241C10.5834 16.8567 10.5352 16.7945 10.4908 16.7305C10.3374 16.5095 10.1819 16.2895 10.0317 16.0665C9.93131 15.916 9.83399 15.7634 9.73983 15.6089C9.54511 15.2914 9.35673 14.9702 9.15865 14.6549C9.01964 14.4335 8.86342 14.223 8.72549 14.0011C8.622 13.8347 8.54245 13.6532 8.44005 13.486C8.2397 13.1591 8.02767 12.8393 7.82692 12.5124C7.74104 12.3719 7.65447 12.3794 7.57166 12.4992C7.44125 12.6875 7.32183 12.8833 7.19865 13.0769C7.12187 13.1978 7.04134 13.3165 6.97238 13.4415C6.89253 13.5865 6.82852 13.7397 6.74937 13.8852C6.66428 14.0415 6.5686 14.1925 6.47936 14.3465C6.27792 14.693 6.07183 15.0368 5.87869 15.3879C5.78144 15.5649 5.71445 15.7585 5.62333 15.9393C5.51153 16.1618 5.37855 16.3739 5.27269 16.5991C5.12883 16.906 4.97963 17.2137 4.87386 17.5343C4.72842 17.9742 4.61207 18.4241 4.50244 18.8746C4.43961 19.1327 4.43961 19.4064 4.36808 19.661C4.17218 20.357 4.26934 21.0632 4.28329 21.7637C4.28932 22.0672 4.40568 22.3701 4.48216 22.6706C4.51975 22.8194 4.58159 22.9621 4.63096 23.1083C4.74989 23.4623 4.92501 23.7861 5.10963 24.1111C5.32532 24.4911 5.63006 24.7936 5.90956 25.1115C6.15019 25.3849 6.48272 25.5804 6.78518 25.7954C7.01452 25.9585 7.25713 26.1043 7.50111 26.2458C7.60619 26.3069 7.7264 26.3472 7.84423 26.3788C8.15985 26.4635 8.45093 26.6059 8.7812 26.6699C9.20347 26.752 9.62337 26.761 10.0445 26.795C10.4975 26.8315 10.9528 26.8677 11.4067 26.8619C11.7856 26.8571 12.1659 26.807 12.5407 26.7468C12.7494 26.7132 12.9489 26.6205 13.1516 26.5513C13.4051 26.4643 13.6649 26.3901 13.9086 26.2805C14.1783 26.1592 14.4498 26.0286 14.6893 25.8579C15.0437 25.6052 15.3872 25.331 15.7035 25.0327C15.9228 24.826 16.09 24.5643 16.2779 24.3247C16.3792 24.1955 16.4851 24.0679 16.5701 23.9281C16.6896 23.7323 16.8029 23.5307 16.8978 23.3222C17.0206 23.0533 17.1468 22.7817 17.2266 22.4989C17.311 22.2013 17.3565 21.8902 17.3934 21.5821C17.4364 21.2229 17.4793 20.8601 17.4722 20.4997C17.4624 20.0196 17.4213 19.5386 17.3603 19.0622C17.3208 18.7526 17.221 18.4506 17.149 18.1447C17.1434 18.1206 17.1457 18.0947 17.1422 18.0697C17.0737 17.57 16.9712 17.0838 16.6862 16.65C16.6026 16.5226 16.5751 16.355 16.5355 16.2026C16.4763 15.975 16.3773 15.7746 16.227 15.5901C16.1415 15.4854 16.11 15.3385 16.0456 15.215C15.9487 15.0293 15.8463 14.8471 15.7439 14.6644C15.6372 14.475 15.5303 14.2851 15.4188 14.0987C15.3274 13.9458 15.2267 13.7981 15.1337 13.646C14.9805 13.3951 14.8347 13.1395 14.6776 12.8912C14.5462 12.6834 14.4001 12.4849 14.2663 12.2781C14.2012 12.1772 14.1522 12.0654 14.0916 11.9614C13.8841 11.6047 13.6736 11.2503 13.4664 10.8936C13.2973 10.6022 13.1584 10.288 12.9558 10.0226C12.7976 9.81499 12.6793 9.59208 12.5535 9.36956C12.404 9.10509 12.2568 8.83954 12.1008 8.57903C11.9668 8.35444 11.8184 8.13835 11.6831 7.91416C11.4937 7.60012 11.3155 7.27965 11.1239 6.967C11.0266 6.8085 10.9073 6.66425 10.8056 6.50832C10.7597 6.43787 10.7389 6.3516 10.6972 6.27818C10.5108 5.94915 10.3216 5.62175 10.1295 5.29601C10.0599 5.17807 9.96838 5.0726 9.90021 4.95397C9.77257 4.73254 9.65543 4.50469 9.53037 4.28138C9.50811 4.24141 9.46141 4.21578 9.43737 4.1766C9.35257 4.03769 9.2754 3.89462 9.191 3.75561C9.08069 3.57406 8.96315 3.39705 8.85471 3.21441C8.79901 3.12022 8.753 3.0197 8.70828 2.91957C8.53414 2.52895 8.46865 2.10143 8.58203 1.70676C8.71461 1.24392 8.92436 0.811159 9.33754 0.477929C9.59023 0.274113 9.82412 0.156572 10.131 0.13441C10.3533 0.118579 10.5755 0.0608974 10.7954 0.0706925C11.047 0.0820706 11.3122 0.107993 11.5426 0.199908C11.8726 0.3313 12.1434 0.570933 12.3422 0.871018C12.5196 1.13914 12.6771 1.42053 12.8469 1.694C13.1173 2.12934 13.3979 2.55874 13.6604 2.99862C13.8547 3.32394 14.0209 3.66597 14.2114 3.99356C14.327 4.19213 14.4671 4.37626 14.5925 4.5691C14.7019 4.73798 14.809 4.90834 14.9138 5.08012C15.0648 5.32591 15.2137 5.573 15.3604 5.82138C15.4625 5.99502 15.5532 6.17538 15.6591 6.34635C15.8048 6.58213 15.9634 6.80999 16.11 7.04536C16.2045 7.19714 16.2847 7.35801 16.3758 7.51196C16.5242 7.76278 16.6783 8.01023 16.8259 8.26114C16.9329 8.44299 17.03 8.63058 17.1378 8.81213C17.2141 8.94086 17.3042 9.06216 17.3825 9.18979C17.5041 9.38836 17.6206 9.5898 17.7407 9.78907C17.9878 10.1981 18.234 10.6074 18.4849 11.0141C18.6762 11.3241 18.9015 11.6168 19.0612 11.9414C19.1982 12.2201 19.3827 12.4623 19.5405 12.724C19.7025 12.9921 19.8238 13.2852 19.9624 13.5673C20.1089 13.8648 20.261 14.1593 20.3989 14.461C20.4667 14.6098 20.5051 14.7717 20.5624 14.9254C20.5962 15.0166 20.6429 15.1031 20.6794 15.1936C20.7955 15.4805 20.9103 15.7675 21.0225 16.056C21.038 16.0955 21.0312 16.1434 21.0421 16.1855C21.1107 16.4545 21.1815 16.723 21.2519 16.9915C21.2568 17.0096 21.2681 17.0261 21.2715 17.0442C21.3223 17.3026 21.3744 17.5606 21.4218 17.8197C21.493 18.2077 21.5702 18.5944 21.6263 18.9846C21.659 19.2132 21.6665 19.4471 21.6669 19.6787C21.6677 20.3495 21.6719 21.0206 21.6485 21.6907C21.6375 22.0063 21.58 22.3222 21.5193 22.6333C21.4569 22.9565 21.3777 23.2763 21.2821 23.5914C21.1875 23.9007 21.0308 24.1932 20.9585 24.5062C20.8643 24.9137 20.5887 25.2335 20.4742 25.6202C20.4053 25.8527 20.2572 25.9976 20.1167 26.1698C19.9974 26.3159 19.9376 26.5095 19.8336 26.6703C19.5899 27.0484 19.3304 27.4111 19.0208 27.7444C18.4604 28.3481 17.8258 28.8566 17.175 29.3548C16.8447 29.6075 16.4896 29.7943 16.1159 29.9623C15.9178 30.0516 15.7333 30.1714 15.5401 30.2719C15.4343 30.3269 15.3262 30.3807 15.2136 30.4176C14.9036 30.519 14.5933 30.6211 14.2784 30.7035C13.9373 30.7931 13.5806 30.8331 13.2472 30.9446C12.4477 31.2123 11.624 31.1886 10.8011 31.1822L10.8015 31.18Z" fill="#9F9F9F" stroke="white" stroke-width="0.92788"/>
</g>
<defs>
<clipPath id="clip0_2038_1687">
<rect width="140" height="32.3534" fill="white"/>
</clipPath>
</defs>
</svg>
