<svg width="137" height="22" viewBox="0 0 137 22" fill="none" xmlns="http://www.w3.org/2000/svg">
<g clip-path="url(#clip0_2038_1412)">
<path d="M32.4374 15.4719L25.3195 2.51682C23.7661 -0.18114 19.9403 -0.205446 18.4332 2.63836L10.9673 16.1038C9.57617 18.5831 11.2919 21.6699 14.0974 21.6699H29.0987C31.9042 21.6942 34.0142 18.4859 32.4374 15.4719Z" fill="#9F9F9F"/>
<path d="M22.1659 16.4928L21.7254 15.6907C21.3081 14.9372 20.4038 13.333 20.4038 13.333L14.3755 2.34671C12.822 -0.0838842 9.11226 -0.302642 7.55881 2.78422L0.533467 15.5205C-0.927248 18.1942 0.811701 21.6699 3.965 21.6942H18.8735H25.2264H29.0058C25.1569 21.7186 23.9281 19.6039 22.1659 16.4928Z" fill="#9F9F9F"/>
<path d="M22.1656 16.4442L21.7251 15.6421C21.3078 14.8886 20.4035 13.2844 20.4035 13.2844L16.5083 6.08984L10.9204 16.1039C9.5293 18.5831 11.2451 21.67 14.0506 21.67H18.85H25.203H29.0055C25.1335 21.6457 23.9278 19.5797 22.1656 16.4442Z" fill="#9F9F9F"/>
<path d="M125.105 6.05147C126.148 5.03062 127.98 4.54449 130.646 4.54449H136.884V0.825684H129.51C127.748 0.825684 126.264 1.02014 125.105 1.40903C123.969 1.79793 122.972 2.40557 122.114 3.25628C121.21 4.17991 120.491 5.32228 119.981 6.68341C119.471 8.06884 119.216 9.57582 119.216 11.1557C119.216 12.6627 119.471 14.121 119.981 15.4579C120.491 16.7947 121.21 17.9614 122.114 18.885C122.949 19.7357 123.946 20.3434 125.059 20.7323C126.195 21.1212 127.702 21.3156 129.51 21.3156H136.884V17.6454H130.646C129.232 17.6454 128.258 17.5968 127.702 17.4753C127.122 17.3537 126.589 17.1593 126.148 16.8676C125.267 16.2843 124.595 15.5308 124.154 14.5828C123.737 13.6592 123.528 12.4925 123.528 11.1314C123.528 8.79803 124.062 7.07232 125.105 6.05147Z" fill="#9F9F9F"/>
<path d="M70.8271 21.3643H88.2167V17.767H75.0701V12.6385H86.5472V9.23564H75.0701V4.47168H88.2167V0.850098H70.8271V21.3643Z" fill="#9F9F9F"/>
<path d="M92.5518 0.850098L100.69 11.1072L92.5518 21.3643H97.8151L104.238 13.2461V8.99258L97.8151 0.850098H92.5518Z" fill="#9F9F9F"/>
<path d="M112.306 0.850098L105.884 8.99258V13.2461L112.306 21.3643H117.57L109.408 11.1072L117.57 0.850098H112.306Z" fill="#9F9F9F"/>
<path d="M53.7855 10.9614L45.9718 0.850098H41.9375V21.3643H46.1805V7.68007L52.9508 16.1872H54.5969L61.3672 7.60717V21.3643H65.6102V0.850098H61.6223L53.7855 10.9614Z" fill="#9F9F9F"/>
</g>
<defs>
<clipPath id="clip0_2038_1412">
<rect width="137" height="22" fill="white"/>
</clipPath>
</defs>
</svg>
