<svg width="149" height="43" viewBox="0 0 149 43" fill="none" xmlns="http://www.w3.org/2000/svg">
<path d="M47.2461 27.9944L47.2651 14.4812H53.2056C56.0525 14.4812 57.6277 16.4361 57.6277 18.7325C57.6277 21.029 56.0145 22.9649 53.2056 22.9649H49.6375V28.0134H47.2461V27.9944ZM52.8639 16.5689H49.6185V20.8772H52.8639C54.2115 20.8772 55.1794 20.0231 55.1794 18.7325C55.1794 17.442 54.2115 16.5689 52.8639 16.5689Z" fill="#9F9F9F"/>
<path d="M65.884 14.2723C69.9456 14.2723 72.7925 17.2331 72.7925 21.2756C72.7925 25.3182 69.9266 28.26 65.865 28.26C61.8035 28.26 58.9756 25.2992 58.9756 21.2567C58.9756 17.2141 61.8414 14.2533 65.884 14.2723ZM65.884 16.379C63.151 16.379 61.4049 18.4667 61.4049 21.2567C61.4049 24.0466 63.132 26.1343 65.884 26.1343C68.636 26.1343 70.3631 24.0276 70.3631 21.2567C70.3631 18.4857 68.5981 16.379 65.884 16.379Z" fill="#9F9F9F"/>
<path d="M75.0889 28.0322L75.1078 14.519H77.4803L77.4613 25.9445H83.4207V28.0322H75.0889Z" fill="#9F9F9F"/>
<path d="M91.2585 14.3101C95.32 14.3101 98.1669 17.2709 98.1669 21.3135C98.1669 25.3561 95.301 28.2978 91.2395 28.2978C87.1779 28.2978 84.3311 25.3371 84.3311 21.2945C84.3311 17.2519 87.2159 14.2912 91.2585 14.3101ZM91.2585 16.3979C88.5255 16.3979 86.7794 18.4856 86.7794 21.2755C86.7794 24.0655 88.5065 26.1722 91.2585 26.1722C93.9915 26.1722 95.7376 24.0655 95.7376 21.2945C95.7376 18.5235 93.9915 16.4168 91.2585 16.3979Z" fill="#9F9F9F"/>
<path d="M109.896 28.0703L102.855 18.2011V28.0513H100.482L100.501 14.5381H102.931L109.82 24.1416V14.5571H112.193L112.174 28.0703H109.896Z" fill="#9F9F9F"/>
<path d="M115.059 28.0703L115.078 14.5571H117.45L117.431 28.0703H115.059Z" fill="#9F9F9F"/>
<path d="M120.316 28.0893L120.335 14.5571H129.597V16.6448L122.708 16.6259V20.137H129.464V22.2247H122.708V25.9636H129.597V28.0514L120.316 28.0893Z" fill="#9F9F9F"/>
<path d="M141.06 28.1081L137.283 22.8129L133.488 28.1081H130.641L135.727 21.1807L130.982 14.5759H133.829L137.302 19.5485L140.776 14.5949H143.641L138.897 21.1617L143.926 28.1271L141.06 28.1081Z" fill="#9F9F9F"/>
<path d="M33.2391 13.1335V21.2186L26.2358 17.1761L19.2324 13.1145L26.2547 9.09092L33.2581 5.04834L33.2391 13.1335Z" fill="#838383"/>
<path d="M19.2137 21.1999V29.285L12.2104 25.2425L5.20703 21.1809L12.2104 17.1573L19.2137 13.1147V21.1999Z" fill="#A8A8A8"/>
<path d="M5.20703 13.0956V5.0105L12.2104 9.05307L19.2137 13.0956L12.2104 17.1572L5.20703 21.1808V13.0956Z" fill="#9F9F9F"/>
<path d="M5.18848 29.2661L5.20746 21.1809L12.2108 25.2425L19.2141 29.285L12.2108 33.3276L5.18848 37.3512V29.2661Z" fill="#838383"/>
<path d="M26.2358 17.1763L19.2324 13.1147V21.1999V29.285L26.2168 33.3466L33.2201 37.3892V29.304L33.2391 21.2189L26.2358 17.1763Z" fill="#9F9F9F"/>
</svg>
