<svg width="155" height="44" viewBox="0 0 155 44" fill="none" xmlns="http://www.w3.org/2000/svg">
<path d="M79.4388 28.3009C79.4602 27.297 80.2932 26.5067 81.2971 26.528C82.3009 26.5494 83.0912 27.3824 83.0699 28.3863C83.0485 29.3688 82.2369 30.1591 81.2543 30.1591C80.2505 30.1378 79.4388 29.3047 79.4388 28.3009ZM101.759 13.8407V17.5144H96.2272C94.3689 17.5144 93.066 17.9416 92.3611 18.796C91.6776 19.6077 91.3359 20.8251 91.3359 22.4698C91.3359 24.3067 91.8912 25.6523 93.0233 26.5067C93.4718 26.8271 93.9844 27.062 94.5184 27.1902C95.266 27.3397 96.0136 27.4038 96.7825 27.3824H101.759V31.0562H95.4369C94.0699 31.0989 92.7029 30.928 91.4 30.5222C90.3747 30.1591 89.4776 29.5183 88.7728 28.6853C87.2776 26.9339 86.5087 24.6912 86.5941 22.3844C86.5941 19.3086 87.4485 17.0232 89.1786 15.528C89.8835 14.9086 90.7378 14.4601 91.6563 14.2251C92.8951 13.9475 94.1553 13.8193 95.4155 13.8407H101.759ZM113.037 13.6057C116.134 13.6057 118.441 14.5242 119.893 16.3611C121.303 18.1552 122.008 20.3979 121.922 22.6834C122.029 25.097 121.089 27.4465 119.359 29.1125C117.8 30.5649 115.664 31.3125 112.951 31.3125C110.153 31.3125 107.953 30.4795 106.351 28.8348C104.878 27.3397 104.151 25.1824 104.151 22.3203C104.087 20.1203 104.835 17.9843 106.266 16.3183C107.847 14.5242 110.089 13.6271 113.037 13.6057ZM113.08 17.1941C110.303 17.1941 108.915 18.9669 108.915 22.4912C108.85 23.6232 109.085 24.7552 109.598 25.7805C110.324 27.0407 111.67 27.7669 113.122 27.6814C115.856 27.6814 117.223 25.93 117.223 22.4057C117.223 18.9882 115.835 17.2581 113.08 17.1941ZM125.361 13.8407H142.342C143.516 13.7979 144.713 13.9261 145.866 14.1824C146.635 14.396 147.34 14.8232 147.895 15.4212C148.963 16.7242 149.518 18.3902 149.412 20.0989V31.0562H144.798V20.8465C144.819 20.2698 144.777 19.6931 144.691 19.1164C144.627 18.7746 144.456 18.4756 144.2 18.2407C143.602 17.728 142.812 17.4504 142.021 17.5144H139.565V31.0562H134.951V17.5144H129.975V31.0562H125.361V13.8407ZM53.0602 22.4484L46.3961 13.6271H51.6932L55.6873 19.5009L60.0019 13.6271H65.2349L58.3573 22.4484L65.2349 31.4407H60.1514L55.6873 25.3319L51.3087 31.4407H46.1611L53.0602 22.4484ZM71.9844 16.8096H64.1883L66.9009 13.6271H83.0485V16.8096H76.3204V31.462H72.0058L71.9844 16.8096Z" fill="#9F9F9F"/>
<path d="M79.4395 28.3011C79.4608 27.2972 80.2938 26.5069 81.2977 26.5283C82.3016 26.5496 83.0919 27.3826 83.0705 28.3865C83.0492 29.369 82.2375 30.1593 81.255 30.1593C80.2511 30.138 79.4395 29.305 79.4395 28.3011Z" fill="#9F9F9F"/>
<path d="M22.1746 38.8098C12.8833 38.8739 5.30081 31.3981 5.23674 22.1282C5.17266 12.837 12.6484 5.25443 21.9183 5.19035C31.2096 5.12627 38.7921 12.5806 38.8562 21.8719V22.0001C38.8775 31.2486 31.4231 38.7671 22.1746 38.8098ZM22.1746 7.68938C14.2717 7.64666 7.8212 13.9904 7.77848 21.9146C7.73576 29.8175 14.0795 36.268 22.0037 36.3107C29.9066 36.3535 36.3571 30.0098 36.3998 22.1069V22.0001C36.3998 14.1185 30.0562 7.7321 22.1746 7.68938ZM22.7727 19.6933L25.9979 15.7418C26.3396 15.336 26.2756 14.7166 25.8697 14.3748C25.6989 14.2467 25.4853 14.1612 25.2717 14.1612C24.994 14.1612 24.7163 14.2894 24.5455 14.503L21.5552 18.1554L18.5435 14.503C18.3727 14.2894 18.095 14.1612 17.8173 14.1612H15.3397C14.8057 14.1612 14.3785 14.6098 14.3785 15.1437C14.3785 15.3573 14.4639 15.5709 14.5921 15.7418L19.0562 21.1884L13.3746 28.1515C13.0329 28.5573 13.0542 29.1554 13.46 29.4972C13.8659 29.8389 14.4639 29.8175 14.8057 29.4117L14.827 29.3904L20.295 22.7049L22.7727 19.6933ZM30.2484 14.1612C29.9707 14.1612 29.693 14.2894 29.5222 14.503L24.0756 21.1884L21.5979 24.2214L18.3727 28.1729C18.0309 28.5787 18.0736 29.1768 18.4795 29.5185C18.8853 29.8603 19.4833 29.8175 19.8251 29.4117L22.8154 25.7593L25.8057 29.4117C25.9765 29.6253 26.2542 29.7535 26.5319 29.7535H29.0096C29.5435 29.7535 29.9707 29.3263 29.9707 28.7923C29.9707 28.5573 29.8853 28.3438 29.7358 28.1729L25.293 22.7263L30.9746 15.7632C31.3163 15.336 31.2309 14.7379 30.8251 14.3962C30.6756 14.2467 30.462 14.1826 30.2484 14.1612Z" fill="#9F9F9F"/>
</svg>
