<svg width="192" height="30" viewBox="0 0 192 30" fill="none" xmlns="http://www.w3.org/2000/svg">
<g clip-path="url(#clip0_1_3382)">
<mask id="mask0_1_3382" style="mask-type:luminance" maskUnits="userSpaceOnUse" x="0" y="0" width="192" height="30">
<path d="M191.428 0H0V30H191.428V0Z" fill="white"/>
</mask>
<g mask="url(#mask0_1_3382)">
<path d="M15.4419 29.8989C23.9703 29.8989 30.8839 23.2057 30.8839 14.9494C30.8839 6.69309 23.9703 0 15.4419 0C6.9136 0 0 6.69309 0 14.9494C0 23.2057 6.9136 29.8989 15.4419 29.8989Z" fill="black"/>
<path d="M19.7141 0.581055L11.6202 12.1063L11.0041 12.9802L10.3879 12.1063L8.04633 8.74475H5.05776L7.40241 12.1063L9.51291 15.1129L7.75363 17.6065L3.21533 24.0789C3.73137 24.7191 4.30012 25.3174 4.91606 25.8685L10.7452 17.6065L10.9979 17.2486L11.2475 17.6065L13.9557 21.484H21.5657C22.4195 21.4842 23.25 21.2138 23.93 20.7138C24.6097 20.2139 25.1021 19.5122 25.3309 18.7157C25.5597 17.9195 25.5127 17.0724 25.1973 16.3043C24.8817 15.5362 24.3149 14.8894 23.5837 14.4627C23.9397 13.8891 24.1319 13.2343 24.1405 12.5652C24.1492 11.8961 23.9741 11.2368 23.633 10.6547C23.2919 10.0728 22.7973 9.58883 22.1996 9.25283C21.602 8.91667 20.9228 8.74033 20.2317 8.74183H16.9874L22.1449 1.46693C21.3615 1.10672 20.5483 0.810396 19.7141 0.581055ZM20.2285 11.1429C20.6086 11.1429 20.973 11.2891 21.2416 11.5492C21.5102 11.8092 21.6612 12.162 21.6612 12.5298C21.6612 12.8977 21.5102 13.2505 21.2416 13.5107C20.973 13.7707 20.6086 13.9168 20.2285 13.9168H14.6828L13.8262 15.1307L14.6582 16.3239H21.5626C21.9427 16.3239 22.307 16.4701 22.5757 16.7302C22.8443 16.9902 22.9953 17.343 22.9953 17.7108C22.9953 18.0788 22.8443 18.4315 22.5757 18.6917C22.307 18.9517 21.9427 19.0978 21.5626 19.0978H15.2682L14.2329 17.6065L13.3302 16.3239L12.4953 15.1307L13.3395 13.9377L14.615 12.1272L15.2928 11.1637H20.2224L20.2285 11.1429Z" fill="white"/>
<path d="M56.188 8.1666H52.8266L50.2201 12.3663L47.6445 8.1666H44.1969L48.2237 14.6362L43.8579 21.732H47.2717L50.2047 16.7927L53.2211 21.732H56.6101L52.1706 14.5735L56.188 8.1666ZM73.4415 14.5616C73.8367 14.2071 74.147 13.7732 74.3508 13.2906C74.5548 12.8077 74.6471 12.2877 74.6217 11.7667C74.5908 9.32392 72.6037 8.14869 69.9262 8.1666H64.1956V21.732H70.5825C73.2445 21.7589 75.2223 20.2794 75.2564 17.9022C75.2834 17.2405 75.1303 16.5835 74.8123 15.9972C74.4944 15.4107 74.0228 14.9157 73.4446 14.5616H73.4415ZM67.2488 10.6841H69.7136C71.0632 10.7227 71.7439 10.9822 71.8086 12.074C71.7623 13.1896 70.8351 13.613 69.6519 13.634H67.2736L67.2488 10.6841ZM71.8179 18.7373C71.4852 19.0357 70.9306 19.2295 70.0432 19.2295H67.2488V15.9486H70.0987C71.3897 15.9724 72.2554 16.4197 72.2892 17.6487C72.2972 17.8508 72.2591 18.0522 72.1783 18.2387C72.0973 18.4252 71.9755 18.5923 71.8209 18.7285L71.8179 18.7373ZM88.2151 8.17556L82.0992 21.732H85.3034L86.2276 19.6054H91.8842L92.7842 21.732H96.0626L89.9434 8.1666L88.2151 8.17556ZM87.3151 16.9954L89.0467 12.9419L90.7534 16.9954H87.3151ZM135.776 8.1666H132.012L127.799 13.4281V8.1666H124.74V21.732H127.796V15.7666L132.837 21.732H136.651L130.578 14.5735L135.776 8.1666ZM144.095 8.46492V21.732H147.136V8.1666H144.095V8.46492ZM165.471 16.1007L158.169 8.1666H156.403V21.732H159.46V13.6936L166.833 21.732H168.53V8.1666H165.471V16.1007ZM112.786 16.1007L105.483 8.1666H103.715V21.732H106.775V13.6936L114.148 21.732H115.843V8.1666H112.786V16.1007ZM185.525 13.8517L183.433 16.4467H188.227C188.002 17.279 187.503 18.0175 186.805 18.55C186.107 19.0824 185.248 19.3797 184.361 19.3966C183.747 19.4119 183.136 19.3082 182.565 19.0917C181.994 18.875 181.473 18.5497 181.033 18.1352C180.593 17.7205 180.245 17.2248 180.006 16.6775C179.767 16.13 179.644 15.5419 179.644 14.9478C179.644 14.3537 179.767 13.7656 180.006 13.2182C180.245 12.6708 180.593 12.1752 181.033 11.7606C181.473 11.3459 181.994 11.0207 182.565 10.8041C183.136 10.5874 183.747 10.4837 184.361 10.4991C185.563 10.5086 186.718 10.9582 187.593 11.7578L187.838 11.9785L189.687 9.69075L189.448 9.50583C188.005 8.36917 186.201 7.7487 184.342 7.74902C180.13 7.74902 176.664 10.8601 176.64 14.9314C176.614 19.0028 180.106 22.1586 184.342 22.1467C188.393 22.1467 191.447 18.8417 191.428 14.9493V13.8517H185.525Z" fill="#1F2226"/>
</g>
</g>
<defs>
<clipPath id="clip0_1_3382">
<rect width="191.667" height="30" fill="white"/>
</clipPath>
</defs>
</svg>
