<?xml version="1.0" encoding="utf-8"?><svg viewBox="0 0 26 26" xmlns="http://www.w3.org/2000/svg" xmlns:xlink="http://www.w3.org/1999/xlink"><style>:root>svg{display:none}:root>svg:target{display:block}</style><svg viewBox="0 0 18 18" id="blockchain" xmlns="http://www.w3.org/2000/svg"><g clip-path="url(#aa)"><path d="M16.125 9.872V8.128A2.62 2.62 0 0 0 18 5.625 2.628 2.628 0 0 0 15.375 3c-.737 0-1.402.308-1.88.8l-1.88-1.176A2.628 2.628 0 0 0 8.989 0a2.628 2.628 0 0 0-2.625 2.625l.002.012L4.506 3.8A2.612 2.612 0 0 0 2.624 3 2.628 2.628 0 0 0 0 5.623a2.62 2.62 0 0 0 1.875 2.503v1.745A2.62 2.62 0 0 0 0 12.374 2.628 2.628 0 0 0 2.625 15c.738 0 1.402-.308 1.88-.8l1.861 1.163-.002.012A2.628 2.628 0 0 0 8.99 18a2.628 2.628 0 0 0 2.625-2.625l1.88-1.175c.478.492 1.143.8 1.881.8A2.628 2.628 0 0 0 18 12.374a2.62 2.62 0 0 0-1.875-2.502Zm-.75-5.372c.62 0 1.125.505 1.125 1.125s-.505 1.125-1.125 1.125-1.125-.505-1.125-1.125.505-1.125 1.125-1.125Zm-6.386-3a1.126 1.126 0 0 1 .001 2.25c-.62 0-1.125-.505-1.125-1.125S8.37 1.5 8.99 1.5ZM1.5 5.625c0-.62.505-1.125 1.125-1.125s1.125.505 1.125 1.125S3.245 6.75 2.625 6.75 1.5 6.245 1.5 5.625ZM2.625 13.5c-.62 0-1.125-.505-1.125-1.125s.505-1.125 1.125-1.125 1.125.505 1.125 1.125S3.245 13.5 2.625 13.5Zm6.364 3c-.62 0-1.125-.505-1.125-1.125S8.37 14.25 8.99 14.25s1.125.505 1.125 1.125S9.61 16.5 8.99 16.5Zm2.165-2.605a2.615 2.615 0 0 0-4.322-.009L5.2 12.866c.03-.16.05-.323.05-.49a2.62 2.62 0 0 0-1.875-2.504V8.128A2.62 2.62 0 0 0 5.25 5.625c0-.168-.02-.331-.05-.49l1.632-1.02A2.62 2.62 0 0 0 8.99 5.25a2.63 2.63 0 0 0 2.165-1.144L12.8 5.134c-.03.16-.05.322-.05.491a2.62 2.62 0 0 0 1.875 2.503v1.744a2.62 2.62 0 0 0-1.875 2.503c0 .168.02.332.05.49l-1.646 1.03Zm4.221-.395c-.62 0-1.125-.505-1.125-1.125s.505-1.125 1.125-1.125 1.125.505 1.125 1.125-.505 1.125-1.125 1.125ZM9.75 9.831 12 8.545v2.323l-2.25 1.407V9.83Zm1.757-2.64L9 8.625 6.493 7.192 9 5.624l2.507 1.568ZM6 8.546 8.25 9.83v2.444L6 10.868V8.545Z"/></g><defs><clipPath id="aa"><path d="M0 0h18v18H0z"/></clipPath></defs></svg><svg viewBox="0 0 16 16" id="calendar" xmlns="http://www.w3.org/2000/svg"><path d="M.5 8c0-2.828 0-4.242.879-5.12C2.258 2 3.672 2 6.5 2h3c2.828 0 4.243 0 5.121.88.878.878.879 2.292.879 5.12v1.5c0 2.829 0 4.243-.879 5.121-.879.879-2.293.88-5.121.88h-3c-2.828 0-4.243 0-5.121-.88C.501 13.742.5 12.33.5 9.501V8ZM4.25 2V.875M11.75 2V.875M.875 5.75h14.25"/><path d="M12.5 11.75a.75.75 0 1 1-1.5 0 .75.75 0 0 1 1.5 0Zm0-3a.75.75 0 1 1-1.5 0 .75.75 0 0 1 1.5 0Zm-3.75 3a.75.75 0 1 1-1.5 0 .75.75 0 0 1 1.5 0Zm0-3a.75.75 0 1 1-1.5 0 .75.75 0 0 1 1.5 0Zm-3.75 3a.75.75 0 1 1-1.5 0 .75.75 0 0 1 1.5 0Zm0-3a.75.75 0 1 1-1.5 0 .75.75 0 0 1 1.5 0Z"/></svg><svg viewBox="0 0 16 17" id="chart" xmlns="http://www.w3.org/2000/svg"><g clip-path="url(#ca)"><path d="M15.333 15.167h-12a2 2 0 0 1-2-2v-12a.667.667 0 1 0-1.333 0v12A3.337 3.337 0 0 0 3.333 16.5h12a.666.666 0 1 0 0-1.333Z"/><path d="M4 13.833a.667.667 0 0 0 .666-.666V8.5a.667.667 0 0 0-1.333 0v4.667a.667.667 0 0 0 .667.666Zm2.667-6.666v6a.667.667 0 0 0 1.333 0v-6a.667.667 0 0 0-1.333 0Zm3.333 2v4a.667.667 0 1 0 1.333 0v-4a.667.667 0 1 0-1.333 0ZM13.333 6.5v6.667a.666.666 0 1 0 1.333 0V6.5a.667.667 0 1 0-1.333 0ZM4 6.5c.176 0 .346-.07.47-.195l2.392-2.391a.683.683 0 0 1 .942 0l1.448 1.448a2 2 0 0 0 2.828 0l3.724-3.724a.667.667 0 0 0-.943-.943L11.137 4.42a.667.667 0 0 1-.942 0L8.747 2.97a2 2 0 0 0-2.828 0l-2.39 2.391a.667.667 0 0 0 .47 1.138Z"/></g><defs><clipPath id="ca"><path transform="translate(0 .5)" d="M0 0h16v16H0z"/></clipPath></defs></svg><svg viewBox="0 0 16 17" id="coins" xmlns="http://www.w3.org/2000/svg"><g clip-path="url(#da)"><path d="M11 .5c-2.804 0-5 1.318-5 3v1.725a8.544 8.544 0 0 0-1-.058c-2.804 0-5 1.318-5 3V13.5c0 1.682 2.196 3 5 3 2.271 0 4.144-.865 4.773-2.087.399.058.81.087 1.227.087 2.804 0 5-1.318 5-3v-8c0-1.682-2.196-3-5-3Zm3.667 8.333c0 .787-1.568 1.667-3.667 1.667-.341 0-.676-.023-1-.069V9.11c.327.038.661.058 1 .058 1.463 0 2.76-.359 3.667-.941v.607ZM1.333 10.226c.907.582 2.204.94 3.667.94 1.463 0 2.76-.358 3.667-.94v.607C8.667 11.62 7.099 12.5 5 12.5c-2.099 0-3.667-.88-3.667-1.667v-.607Zm13.334-4.06c0 .787-1.568 1.667-3.667 1.667-.357 0-.707-.025-1.044-.074-.129-.592-.533-1.123-1.137-1.549.656.187 1.394.29 2.181.29 1.463 0 2.76-.359 3.667-.94v.607ZM11 1.834c2.099 0 3.667.88 3.667 1.667S13.099 5.167 11 5.167c-2.099 0-3.667-.88-3.667-1.667S8.901 1.833 11 1.833ZM5 6.5c2.099 0 3.667.88 3.667 1.667 0 .786-1.568 1.666-3.667 1.666-2.099 0-3.667-.88-3.667-1.666C1.333 7.38 2.901 6.5 5 6.5Zm0 8.667c-2.099 0-3.667-.88-3.667-1.667v-.607c.907.582 2.204.94 3.667.94 1.463 0 2.76-.358 3.667-.94v.607c0 .787-1.568 1.667-3.667 1.667Zm6-2c-.341 0-.676-.024-1-.069v-1.323c.327.038.661.058 1 .058 1.463 0 2.76-.358 3.667-.94v.607c0 .787-1.568 1.667-3.667 1.667Z"/></g><defs><clipPath id="da"><path transform="translate(0 .5)" d="M0 0h16v16H0z"/></clipPath></defs></svg><svg viewBox="0 0 16 16" id="database" xmlns="http://www.w3.org/2000/svg"><path d="M16 2.5a2 2 0 0 0-2-2H2a2 2 0 0 0-2 2v2c.002.494.187.969.52 1.333A1.99 1.99 0 0 0 0 7.167v2c.002.493.187.969.52 1.333-.333.364-.518.84-.52 1.333v4h16v-4a1.987 1.987 0 0 0-.52-1.333c.333-.364.518-.84.52-1.333v-2a1.987 1.987 0 0 0-.52-1.334c.333-.364.518-.84.52-1.333v-2Zm-14.667 0A.667.667 0 0 1 2 1.833h1.333v1.334h1.334V1.833H6v1.334h1.333V1.833H14a.667.667 0 0 1 .667.667v2a.667.667 0 0 1-.667.667H2a.667.667 0 0 1-.667-.667v-2Zm13.334 4.667v2a.667.667 0 0 1-.667.666H2a.667.667 0 0 1-.667-.666v-2A.667.667 0 0 1 2 6.5h1.333v1.333h1.334V6.5H6v1.333h1.333V6.5H14a.667.667 0 0 1 .667.667Zm0 7.333H1.333v-2.667A.667.667 0 0 1 2 11.167h1.333V12.5h1.334v-1.333H6V12.5h1.333v-1.333H14a.667.667 0 0 1 .667.666V14.5Z"/></svg><svg viewBox="0 0 16 17" id="features" xmlns="http://www.w3.org/2000/svg"><g clip-path="url(#fa)"><path d="M6 11.167h6.666V12.5H6v-1.333Zm10-5.61V16.5H2.666v-3.121L4 14.712v.455h10.666V6.5H10V1.833H4.666A.667.667 0 0 0 4 2.5v1.46a4.018 4.018 0 0 0-1.334-.113V2.5c0-1.103.898-2 2-2h6.276L16 5.557Zm-4.667-.39h2.39l-2.39-2.391v2.39ZM12.666 8.5H6.944c-.08.479-.245.929-.479 1.333h6.202V8.5ZM1.333 13.493v-3.58a2.66 2.66 0 0 1-1-2.08A2.67 2.67 0 0 1 3 5.167a2.67 2.67 0 0 1 2.666 2.666 2.66 2.66 0 0 1-1 2.08v3.58L3 11.827l-1.667 1.666Zm.333-5.66a1.335 1.335 0 0 0 2.667 0 1.335 1.335 0 0 0-2.667 0Z"/></g><defs><clipPath id="fa"><path transform="translate(0 .5)" d="M0 0h16v16H0z"/></clipPath></defs></svg><svg viewBox="0 0 18 18" id="lightbulb" xmlns="http://www.w3.org/2000/svg"><g clip-path="url(#ga)"><path d="M8.898 3c-3.138.053-5.782 2.645-5.893 5.78a5.966 5.966 0 0 0 2.062 4.744c.593.515.933 1.307.933 2.226C6 16.99 7.01 18 8.25 18h1.5c1.24 0 2.25-1.01 2.25-2.25v-.281c0-.725.341-1.424.962-1.97A5.99 5.99 0 0 0 15 9a5.96 5.96 0 0 0-1.792-4.277A5.92 5.92 0 0 0 8.898 3ZM10.5 15.75a.75.75 0 0 1-.75.75h-1.5c-.414 0-.75-.336-.75-.802 0-.237-.023-.47-.058-.698h3.089c-.019.155-.03.311-.03.469v.281Zm1.472-3.377a4.515 4.515 0 0 0-.93 1.127H9.75v-3.138c.87-.31 1.5-1.135 1.5-2.112a.75.75 0 1 0-1.5 0 .75.75 0 1 1-1.5 0 .75.75 0 1 0-1.5 0c0 .977.63 1.802 1.5 2.112V13.5H6.94a4.099 4.099 0 0 0-.89-1.108 4.477 4.477 0 0 1-1.547-3.558C4.587 6.483 6.57 4.539 8.923 4.5H9c1.19 0 2.308.457 3.156 1.292a4.493 4.493 0 0 1-.184 6.58Zm.617-10.517.926-1.508a.747.747 0 0 1 1.031-.246.748.748 0 0 1 .246 1.031l-.926 1.508a.748.748 0 0 1-1.031.247.75.75 0 0 1-.246-1.032Zm4.97 3.11-1.449.655a.75.75 0 1 1-.616-1.367l1.45-.654a.747.747 0 0 1 .99.375.748.748 0 0 1-.374.992ZM3.147 1.134A.75.75 0 1 1 4.424.349l.924 1.508a.75.75 0 1 1-1.278.783l-.924-1.508Zm-.363 4.163a.748.748 0 0 1-1 .352L.436 5.002a.749.749 0 1 1 .647-1.352l1.349.645a.75.75 0 0 1 .352 1Z"/></g><defs><clipPath id="ga"><path d="M0 0h18v18H0z"/></clipPath></defs></svg><svg viewBox="0 0 26 26" id="medium" xmlns="http://www.w3.org/2000/svg"><g clip-path="url(#ha)"><path d="M8.666 6.5a6.5 6.5 0 1 1 0 13 6.5 6.5 0 0 1 0-13Zm9.75 1.083c1.625 0 2.708 2.426 2.708 5.417 0 2.991-1.083 5.417-2.708 5.417-1.625 0-2.708-2.426-2.708-5.417 0-2.991 1.083-5.417 2.708-5.417Zm4.333.542c.412 0 .772.896.954 2.433l.05.48.021.255.033.535.01.28.014.586.002.306-.002.306-.014.586-.01.281-.033.534-.021.255-.05.48c-.182 1.538-.54 2.433-.954 2.433-.411 0-.771-.896-.953-2.433l-.05-.48-.021-.255-.033-.535a21.92 21.92 0 0 1-.01-.28l-.014-.586v-.611l.013-.587.011-.281.032-.534.022-.255.049-.48c.183-1.538.542-2.433.954-2.433Z"/></g><defs><clipPath id="ha"><path d="M0 0h26v26H0z"/></clipPath></defs></svg><svg viewBox="0 0 18 18" id="microchip" xmlns="http://www.w3.org/2000/svg"><g clip-path="url(#ia)"><path d="M18 5.25v-1.5h-1.5a2.247 2.247 0 0 0-2.25-2.25V0h-1.5v1.5h-1.5V0h-1.5v1.5h-1.5V0h-1.5v1.5h-1.5V0h-1.5v1.5A2.247 2.247 0 0 0 1.5 3.75H0v1.5h1.5v1.5H0v1.5h1.5v1.5H0v1.5h1.5v1.5H0v1.5h1.5a2.247 2.247 0 0 0 2.25 2.25V18h1.5v-1.5h1.5V18h1.5v-1.5h1.5V18h1.5v-1.5h1.5V18h1.5v-1.5a2.247 2.247 0 0 0 2.25-2.25H18v-1.5h-1.5v-1.5H18v-1.5h-1.5v-1.5H18v-1.5h-1.5v-1.5H18Zm-3 9c0 .412-.338.75-.75.75H3.75a.752.752 0 0 1-.75-.75V3.75c0-.413.337-.75.75-.75h10.5c.412 0 .75.337.75.75v10.5Zm-9.75-1.5h7.5v-7.5h-7.5v7.5Zm1.5-6h4.5v4.5h-4.5v-4.5Z"/><path d="M18 5.25v-1.5h-1.5a2.247 2.247 0 0 0-2.25-2.25V0h-1.5v1.5h-1.5V0h-1.5v1.5h-1.5V0h-1.5v1.5h-1.5V0h-1.5v1.5A2.247 2.247 0 0 0 1.5 3.75H0v1.5h1.5v1.5H0v1.5h1.5v1.5H0v1.5h1.5v1.5H0v1.5h1.5a2.247 2.247 0 0 0 2.25 2.25V18h1.5v-1.5h1.5V18h1.5v-1.5h1.5V18h1.5v-1.5h1.5V18h1.5v-1.5a2.247 2.247 0 0 0 2.25-2.25H18v-1.5h-1.5v-1.5H18v-1.5h-1.5v-1.5H18v-1.5h-1.5v-1.5H18Zm-3 9c0 .412-.338.75-.75.75H3.75a.752.752 0 0 1-.75-.75V3.75c0-.413.337-.75.75-.75h10.5c.412 0 .75.337.75.75v10.5Zm-9.75-1.5h7.5v-7.5h-7.5v7.5Zm1.5-6h4.5v4.5h-4.5v-4.5Z"/></g><defs><clipPath id="ia"><path d="M0 0h18v18H0z"/></clipPath></defs></svg><svg viewBox="0 0 18 16" id="news" xmlns="http://www.w3.org/2000/svg"><path d="M9 4.25h1.25M9 6.75h1.25M4 9.25h6.25M4 11.75h6.25m2.5-7.5h2.813c.517 0 .937.42.937.938V13a1.875 1.875 0 0 1-1.875 1.875M12.75 4.25V13a1.875 1.875 0 0 0 1.875 1.875M12.75 4.25V2.062a.938.938 0 0 0-.938-.937H2.438a.938.938 0 0 0-.938.938V13a1.875 1.875 0 0 0 1.875 1.875h11.25M4 4.25h2.5v2.5H4v-2.5Z"/></svg><svg viewBox="0 0 16 17" id="podcast" xmlns="http://www.w3.org/2000/svg"><g clip-path="url(#ka)"><path d="M9.611 11.768c.328.373.461.885.386 1.483l-.361 1.91C9.465 15.942 8.666 16.5 8 16.5c-.667 0-1.448-.558-1.615-1.32l-.358-1.89c-.082-.637.051-1.15.379-1.521.352-.4.889-.602 1.595-.602.722 0 1.258.202 1.61.601ZM9.333 8.5a1.333 1.333 0 1 0-2.666 0 1.333 1.333 0 0 0 2.666 0ZM8 .5c-4.411 0-8 3.589-8 8 0 2.714 1.36 5.22 3.635 6.706a.667.667 0 0 0 .729-1.117A6.65 6.65 0 0 1 1.334 8.5 6.674 6.674 0 0 1 8 1.833 6.674 6.674 0 0 1 14.667 8.5a6.652 6.652 0 0 1-3.031 5.589.667.667 0 0 0 .728 1.117A7.981 7.981 0 0 0 15.999 8.5C16 4.089 12.411.5 8 .5Zm3.889 10.58a4.642 4.642 0 0 0 .778-2.58A4.672 4.672 0 0 0 8 3.833 4.672 4.672 0 0 0 3.333 8.5c0 .89.268 1.771.776 2.548a.667.667 0 0 0 1.117-.73 3.328 3.328 0 0 1-.56-1.818A3.337 3.337 0 0 1 8 5.167a3.337 3.337 0 0 1 2.778 5.176.667.667 0 0 0 1.11.739Z"/></g><defs><clipPath id="ka"><path transform="translate(0 .5)" d="M0 0h16v16H0z"/></clipPath></defs></svg><svg viewBox="0 0 26 26" id="telegram" xmlns="http://www.w3.org/2000/svg"><path d="M22.388 4.027 3.18 11.434c-1.31.526-1.303 1.257-.24 1.583l4.931 1.539 11.41-7.199c.54-.328 1.032-.152.627.208l-9.244 8.343h-.002.002l-.34 5.084c.498 0 .718-.229.998-.498l2.395-2.33 4.982 3.68c.919.506 1.579.246 1.807-.85l3.27-15.414c.335-1.342-.512-1.95-1.388-1.553Z"/></svg><svg viewBox="0 0 16 17" id="tools" xmlns="http://www.w3.org/2000/svg"><g clip-path="url(#ma)"><path d="M11.986 9.183a2.346 2.346 0 0 0-2.76-.405L6.005 5.557V3.499a1.9 1.9 0 0 0-.948-1.641L3.069.712a1.59 1.59 0 0 0-1.916.253l-.683.684a1.588 1.588 0 0 0-.253 1.915l1.146 1.987a1.9 1.9 0 0 0 1.642.949h2.057L8.28 9.717c-.185.339-.284.72-.284 1.116 0 .624.244 1.21.686 1.651l3.343 3.333a2.346 2.346 0 0 0 1.653.683c.657 0 1.392-.347 1.812-.86.75-.914.65-2.316-.228-3.19l-3.275-3.267ZM2.518 4.886 1.372 2.898a.254.254 0 0 1 .04-.306l.684-.684a.255.255 0 0 1 .307-.04l1.986 1.146c.174.1.282.287.282.486v1.667H3.004a.562.562 0 0 1-.486-.281Zm11.94 9.909a1.001 1.001 0 0 1-.731.37c-.28.014-.56-.092-.761-.292L9.623 11.54a.994.994 0 0 1 0-1.413 1.005 1.005 0 0 1 1.422 0l3.276 3.266c.397.396.457 1.012.137 1.402Zm-7.5-2.896c.26.262.26.683-.001.943l-2.985 2.975a2.345 2.345 0 0 1-1.653.682c-.588 0-1.392-.347-1.812-.86-.75-.914-.65-2.316.228-3.19l3.778-3.77a.666.666 0 1 1 .942.944l-3.78 3.77c-.397.396-.458 1.012-.138 1.401a1.012 1.012 0 0 0 1.493.079L6.015 11.9a.668.668 0 0 1 .944.001Zm-.363-8.31A4.891 4.891 0 0 1 10.256.578a4.885 4.885 0 0 1 1.72-.004c.443.079.801.392.934.816.153.486 0 1.02-.408 1.43l-1.557 1.495c-.323.323-.376.84-.11 1.166a.833.833 0 0 0 1.24.066l1.742-1.681a1.245 1.245 0 0 1 1.262-.3c.442.14.767.508.848.96.1.566.099 1.145-.004 1.721a4.88 4.88 0 0 1-1.537 2.749.666.666 0 1 1-.893-.99 3.543 3.543 0 0 0 1.117-1.993c.066-.365.075-.73.029-1.088l-1.63 1.573a2.153 2.153 0 0 1-1.632.624 2.178 2.178 0 0 1-1.574-.797c-.694-.849-.602-2.15.21-2.962l1.556-1.494.006-.006a3.565 3.565 0 0 0-1.083.029 3.548 3.548 0 0 0-2.655 2.186.666.666 0 1 1-1.24-.487l-.002-.002Z"/></g><defs><clipPath id="ma"><path transform="translate(0 .5)" d="M0 0h16v16H0z"/></clipPath></defs></svg><svg viewBox="0 0 26 26" id="twitter" xmlns="http://www.w3.org/2000/svg"><path d="M21.662 7.245a4.659 4.659 0 0 0 2.044-2.571A9.307 9.307 0 0 1 20.754 5.8a4.658 4.658 0 0 0-7.926 4.242 13.2 13.2 0 0 1-9.58-4.858 4.658 4.658 0 0 0 1.438 6.207 4.633 4.633 0 0 1-2.105-.582v.058c0 2.213 1.56 4.12 3.73 4.559a4.66 4.66 0 0 1-2.1.08 4.658 4.658 0 0 0 4.344 3.228 9.327 9.327 0 0 1-5.775 1.99 9.45 9.45 0 0 1-1.11-.064 13.159 13.159 0 0 0 7.127 2.089A13.137 13.137 0 0 0 22.025 9.521c0-.201-.005-.401-.014-.6a9.445 9.445 0 0 0 2.32-2.408 9.294 9.294 0 0 1-2.67.732Z"/></svg><svg viewBox="0 0 18 18" id="users" xmlns="http://www.w3.org/2000/svg"><g clip-path="url(#oa)"><mask id="ob" maskUnits="userSpaceOnUse" x="0" y="0" width="18" height="18"><path d="M0 0h18v18H0V0Z"/></mask><g mask="url(#ob)" stroke-width="1.5" stroke-miterlimit="10"><path d="M6.75 9a2.25 2.25 0 1 1 4.5 0 2.25 2.25 0 0 1-4.5 0ZM5.25 17.25a3.75 3.75 0 1 1 7.5 0M11.25 3a2.25 2.25 0 1 1 4.5 0 2.25 2.25 0 0 1-4.5 0ZM13.5 7.5a3.75 3.75 0 0 1 3.75 3.75M6.75 3a2.25 2.25 0 1 0-4.5 0 2.25 2.25 0 0 0 4.5 0ZM4.5 7.5a3.75 3.75 0 0 0-3.75 3.75"/></g></g><defs><clipPath id="oa"><path d="M0 0h18v18H0z"/></clipPath></defs></svg><svg viewBox="0 0 18 19" id="web" xmlns="http://www.w3.org/2000/svg"><path d="M16.125 14.875c-.345 0-.665.1-.942.262l-2.34-1.701 1.407-.804V6.618l-1.407-.804 2.34-1.702c.277.163.597.263.942.263a1.875 1.875 0 1 0-1.83-1.472l-2.88 2.095L9 3.618l-2.415 1.38-2.88-2.095a1.875 1.875 0 1 0-1.83 1.472c.345 0 .664-.1.942-.263l2.34 1.702-1.407.804v6.014l1.407.804-2.34 1.701a1.855 1.855 0 0 0-.942-.262 1.875 1.875 0 1 0 1.83 1.472l2.88-2.095L9 15.632l2.415-1.38 2.88 2.095a1.875 1.875 0 1 0 1.83-1.472ZM5.25 8.225l3 1.714v3.537l-3-1.714V8.225Zm4.5 1.714 3-1.713v3.536l-3 1.714V9.94Zm2.134-2.946L9 8.64 6.116 6.993 9 5.346l2.884 1.647Z"/></svg><svg viewBox="0 0 26 26" id="youtube" xmlns="http://www.w3.org/2000/svg"><path d="M10.833 16.25 16.455 13l-5.622-3.25v6.5Zm12.523-8.483c.14.51.238 1.192.303 2.059.076.867.109 1.614.109 2.264l.065.91c0 2.373-.174 4.117-.477 5.233-.27.974-.9 1.603-1.874 1.874-.51.14-1.441.238-2.871.303a72.236 72.236 0 0 1-3.89.108L13 20.583c-4.539 0-7.366-.173-8.482-.476-.975-.271-1.603-.9-1.874-1.874-.141-.51-.239-1.192-.304-2.059a26.064 26.064 0 0 1-.108-2.264L2.166 13c0-2.373.173-4.117.477-5.233.27-.975.899-1.603 1.874-1.874.509-.14 1.44-.238 2.87-.303a72.207 72.207 0 0 1 3.89-.108l1.722-.065c4.54 0 7.367.173 8.483.476.975.271 1.603.9 1.874 1.874Z"/></svg></svg>